ISO-10303-21;
HEADER;
/* Generated by software containing ST-Developer
 * from STEP Tools, Inc. (www.steptools.com) 
 */

FILE_DESCRIPTION(
/* description */ (''),
/* implementation_level */ '2;1');

FILE_NAME(
/* name */ 'top.step',
/* time_stamp */ '2026-08-16T22:23:41-04:00',
/* author */ (''),
/* organization */ (''),
/* preprocessor_version */ 'ST-DEVELOPER v20.1',
/* originating_system */ 'Autodesk Translation Framework v15.8.0.0',
/* authorisation */ '');

FILE_SCHEMA (('AUTOMOTIVE_DESIGN { 1 0 10303 214 3 1 1 }'));
ENDSEC;

DATA;
#10=MECHANICAL_DESIGN_GEOMETRIC_PRESENTATION_REPRESENTATION('',(#13),#463);
#11=SHAPE_REPRESENTATION_RELATIONSHIP('SRR','None',#469,#12);
#12=ADVANCED_BREP_SHAPE_REPRESENTATION('',(#14),#462);
#13=STYLED_ITEM('',(#480),#14);
#14=MANIFOLD_SOLID_BREP('Body6',#287);
#15=FACE_BOUND('',#62,.T.);
#16=FACE_BOUND('',#63,.T.);
#17=FACE_BOUND('',#64,.T.);
#18=FACE_BOUND('',#65,.T.);
#19=FACE_BOUND('',#66,.T.);
#20=FACE_BOUND('',#68,.T.);
#21=FACE_BOUND('',#69,.T.);
#22=FACE_BOUND('',#70,.T.);
#23=FACE_BOUND('',#71,.T.);
#24=FACE_BOUND('',#72,.T.);
#25=PLANE('',#301);
#26=PLANE('',#302);
#27=PLANE('',#303);
#28=PLANE('',#304);
#29=PLANE('',#305);
#30=PLANE('',#306);
#31=PLANE('',#307);
#32=PLANE('',#308);
#33=PLANE('',#309);
#34=PLANE('',#310);
#35=FACE_OUTER_BOUND('',#49,.T.);
#36=FACE_OUTER_BOUND('',#50,.T.);
#37=FACE_OUTER_BOUND('',#51,.T.);
#38=FACE_OUTER_BOUND('',#52,.T.);
#39=FACE_OUTER_BOUND('',#53,.T.);
#40=FACE_OUTER_BOUND('',#54,.T.);
#41=FACE_OUTER_BOUND('',#55,.T.);
#42=FACE_OUTER_BOUND('',#56,.T.);
#43=FACE_OUTER_BOUND('',#57,.T.);
#44=FACE_OUTER_BOUND('',#58,.T.);
#45=FACE_OUTER_BOUND('',#59,.T.);
#46=FACE_OUTER_BOUND('',#60,.T.);
#47=FACE_OUTER_BOUND('',#61,.T.);
#48=FACE_OUTER_BOUND('',#67,.T.);
#49=EDGE_LOOP('',(#197,#198,#199,#200));
#50=EDGE_LOOP('',(#201,#202,#203,#204));
#51=EDGE_LOOP('',(#205,#206,#207,#208));
#52=EDGE_LOOP('',(#209,#210,#211,#212));
#53=EDGE_LOOP('',(#213,#214,#215,#216));
#54=EDGE_LOOP('',(#217,#218,#219,#220));
#55=EDGE_LOOP('',(#221,#222,#223,#224));
#56=EDGE_LOOP('',(#225,#226,#227,#228));
#57=EDGE_LOOP('',(#229,#230,#231,#232));
#58=EDGE_LOOP('',(#233,#234,#235,#236));
#59=EDGE_LOOP('',(#237,#238,#239,#240));
#60=EDGE_LOOP('',(#241,#242,#243,#244));
#61=EDGE_LOOP('',(#245,#246,#247,#248));
#62=EDGE_LOOP('',(#249,#250,#251,#252));
#63=EDGE_LOOP('',(#253));
#64=EDGE_LOOP('',(#254));
#65=EDGE_LOOP('',(#255));
#66=EDGE_LOOP('',(#256));
#67=EDGE_LOOP('',(#257,#258,#259,#260));
#68=EDGE_LOOP('',(#261,#262,#263,#264));
#69=EDGE_LOOP('',(#265));
#70=EDGE_LOOP('',(#266));
#71=EDGE_LOOP('',(#267));
#72=EDGE_LOOP('',(#268));
#73=LINE('',#390,#101);
#74=LINE('',#396,#102);
#75=LINE('',#402,#103);
#76=LINE('',#408,#104);
#77=LINE('',#413,#105);
#78=LINE('',#415,#106);
#79=LINE('',#417,#107);
#80=LINE('',#418,#108);
#81=LINE('',#421,#109);
#82=LINE('',#423,#110);
#83=LINE('',#424,#111);
#84=LINE('',#427,#112);
#85=LINE('',#429,#113);
#86=LINE('',#430,#114);
#87=LINE('',#432,#115);
#88=LINE('',#433,#116);
#89=LINE('',#437,#117);
#90=LINE('',#439,#118);
#91=LINE('',#441,#119);
#92=LINE('',#442,#120);
#93=LINE('',#445,#121);
#94=LINE('',#447,#122);
#95=LINE('',#448,#123);
#96=LINE('',#451,#124);
#97=LINE('',#453,#125);
#98=LINE('',#454,#126);
#99=LINE('',#456,#127);
#100=LINE('',#457,#128);
#101=VECTOR('',#317,1.45);
#102=VECTOR('',#324,1.45);
#103=VECTOR('',#331,1.45);
#104=VECTOR('',#338,1.45);
#105=VECTOR('',#343,10.);
#106=VECTOR('',#344,10.);
#107=VECTOR('',#345,10.);
#108=VECTOR('',#346,10.);
#109=VECTOR('',#349,10.);
#110=VECTOR('',#350,10.);
#111=VECTOR('',#351,10.);
#112=VECTOR('',#354,10.);
#113=VECTOR('',#355,10.);
#114=VECTOR('',#356,10.);
#115=VECTOR('',#359,10.);
#116=VECTOR('',#360,10.);
#117=VECTOR('',#363,10.);
#118=VECTOR('',#364,10.);
#119=VECTOR('',#365,10.);
#120=VECTOR('',#366,10.);
#121=VECTOR('',#369,10.);
#122=VECTOR('',#370,10.);
#123=VECTOR('',#371,10.);
#124=VECTOR('',#374,10.);
#125=VECTOR('',#375,10.);
#126=VECTOR('',#376,10.);
#127=VECTOR('',#379,10.);
#128=VECTOR('',#380,10.);
#129=CIRCLE('',#290,1.45);
#130=CIRCLE('',#291,1.45);
#131=CIRCLE('',#293,1.45);
#132=CIRCLE('',#294,1.45);
#133=CIRCLE('',#296,1.45);
#134=CIRCLE('',#297,1.45);
#135=CIRCLE('',#299,1.45);
#136=CIRCLE('',#300,1.45);
#137=VERTEX_POINT('',#387);
#138=VERTEX_POINT('',#389);
#139=VERTEX_POINT('',#393);
#140=VERTEX_POINT('',#395);
#141=VERTEX_POINT('',#399);
#142=VERTEX_POINT('',#401);
#143=VERTEX_POINT('',#405);
#144=VERTEX_POINT('',#407);
#145=VERTEX_POINT('',#411);
#146=VERTEX_POINT('',#412);
#147=VERTEX_POINT('',#414);
#148=VERTEX_POINT('',#416);
#149=VERTEX_POINT('',#420);
#150=VERTEX_POINT('',#422);
#151=VERTEX_POINT('',#426);
#152=VERTEX_POINT('',#428);
#153=VERTEX_POINT('',#435);
#154=VERTEX_POINT('',#436);
#155=VERTEX_POINT('',#438);
#156=VERTEX_POINT('',#440);
#157=VERTEX_POINT('',#444);
#158=VERTEX_POINT('',#446);
#159=VERTEX_POINT('',#450);
#160=VERTEX_POINT('',#452);
#161=EDGE_CURVE('',#137,#137,#129,.T.);
#162=EDGE_CURVE('',#137,#138,#73,.T.);
#163=EDGE_CURVE('',#138,#138,#130,.T.);
#164=EDGE_CURVE('',#139,#139,#131,.T.);
#165=EDGE_CURVE('',#139,#140,#74,.T.);
#166=EDGE_CURVE('',#140,#140,#132,.T.);
#167=EDGE_CURVE('',#141,#141,#133,.T.);
#168=EDGE_CURVE('',#141,#142,#75,.T.);
#169=EDGE_CURVE('',#142,#142,#134,.T.);
#170=EDGE_CURVE('',#143,#143,#135,.T.);
#171=EDGE_CURVE('',#143,#144,#76,.T.);
#172=EDGE_CURVE('',#144,#144,#136,.T.);
#173=EDGE_CURVE('',#145,#146,#77,.T.);
#174=EDGE_CURVE('',#146,#147,#78,.T.);
#175=EDGE_CURVE('',#148,#147,#79,.T.);
#176=EDGE_CURVE('',#145,#148,#80,.T.);
#177=EDGE_CURVE('',#149,#145,#81,.T.);
#178=EDGE_CURVE('',#150,#148,#82,.T.);
#179=EDGE_CURVE('',#149,#150,#83,.T.);
#180=EDGE_CURVE('',#151,#149,#84,.T.);
#181=EDGE_CURVE('',#152,#150,#85,.T.);
#182=EDGE_CURVE('',#151,#152,#86,.T.);
#183=EDGE_CURVE('',#146,#151,#87,.T.);
#184=EDGE_CURVE('',#147,#152,#88,.T.);
#185=EDGE_CURVE('',#153,#154,#89,.T.);
#186=EDGE_CURVE('',#154,#155,#90,.T.);
#187=EDGE_CURVE('',#156,#155,#91,.T.);
#188=EDGE_CURVE('',#153,#156,#92,.T.);
#189=EDGE_CURVE('',#157,#153,#93,.T.);
#190=EDGE_CURVE('',#158,#156,#94,.T.);
#191=EDGE_CURVE('',#157,#158,#95,.T.);
#192=EDGE_CURVE('',#159,#157,#96,.T.);
#193=EDGE_CURVE('',#160,#158,#97,.T.);
#194=EDGE_CURVE('',#159,#160,#98,.T.);
#195=EDGE_CURVE('',#159,#154,#99,.T.);
#196=EDGE_CURVE('',#155,#160,#100,.T.);
#197=ORIENTED_EDGE('',*,*,#161,.F.);
#198=ORIENTED_EDGE('',*,*,#162,.T.);
#199=ORIENTED_EDGE('',*,*,#163,.F.);
#200=ORIENTED_EDGE('',*,*,#162,.F.);
#201=ORIENTED_EDGE('',*,*,#164,.F.);
#202=ORIENTED_EDGE('',*,*,#165,.T.);
#203=ORIENTED_EDGE('',*,*,#166,.F.);
#204=ORIENTED_EDGE('',*,*,#165,.F.);
#205=ORIENTED_EDGE('',*,*,#167,.F.);
#206=ORIENTED_EDGE('',*,*,#168,.T.);
#207=ORIENTED_EDGE('',*,*,#169,.F.);
#208=ORIENTED_EDGE('',*,*,#168,.F.);
#209=ORIENTED_EDGE('',*,*,#170,.F.);
#210=ORIENTED_EDGE('',*,*,#171,.T.);
#211=ORIENTED_EDGE('',*,*,#172,.F.);
#212=ORIENTED_EDGE('',*,*,#171,.F.);
#213=ORIENTED_EDGE('',*,*,#173,.T.);
#214=ORIENTED_EDGE('',*,*,#174,.T.);
#215=ORIENTED_EDGE('',*,*,#175,.F.);
#216=ORIENTED_EDGE('',*,*,#176,.F.);
#217=ORIENTED_EDGE('',*,*,#177,.T.);
#218=ORIENTED_EDGE('',*,*,#176,.T.);
#219=ORIENTED_EDGE('',*,*,#178,.F.);
#220=ORIENTED_EDGE('',*,*,#179,.F.);
#221=ORIENTED_EDGE('',*,*,#180,.T.);
#222=ORIENTED_EDGE('',*,*,#179,.T.);
#223=ORIENTED_EDGE('',*,*,#181,.F.);
#224=ORIENTED_EDGE('',*,*,#182,.F.);
#225=ORIENTED_EDGE('',*,*,#183,.T.);
#226=ORIENTED_EDGE('',*,*,#182,.T.);
#227=ORIENTED_EDGE('',*,*,#184,.F.);
#228=ORIENTED_EDGE('',*,*,#174,.F.);
#229=ORIENTED_EDGE('',*,*,#185,.T.);
#230=ORIENTED_EDGE('',*,*,#186,.T.);
#231=ORIENTED_EDGE('',*,*,#187,.F.);
#232=ORIENTED_EDGE('',*,*,#188,.F.);
#233=ORIENTED_EDGE('',*,*,#189,.T.);
#234=ORIENTED_EDGE('',*,*,#188,.T.);
#235=ORIENTED_EDGE('',*,*,#190,.F.);
#236=ORIENTED_EDGE('',*,*,#191,.F.);
#237=ORIENTED_EDGE('',*,*,#192,.T.);
#238=ORIENTED_EDGE('',*,*,#191,.T.);
#239=ORIENTED_EDGE('',*,*,#193,.F.);
#240=ORIENTED_EDGE('',*,*,#194,.F.);
#241=ORIENTED_EDGE('',*,*,#195,.F.);
#242=ORIENTED_EDGE('',*,*,#194,.T.);
#243=ORIENTED_EDGE('',*,*,#196,.F.);
#244=ORIENTED_EDGE('',*,*,#186,.F.);
#245=ORIENTED_EDGE('',*,*,#196,.T.);
#246=ORIENTED_EDGE('',*,*,#193,.T.);
#247=ORIENTED_EDGE('',*,*,#190,.T.);
#248=ORIENTED_EDGE('',*,*,#187,.T.);
#249=ORIENTED_EDGE('',*,*,#184,.T.);
#250=ORIENTED_EDGE('',*,*,#181,.T.);
#251=ORIENTED_EDGE('',*,*,#178,.T.);
#252=ORIENTED_EDGE('',*,*,#175,.T.);
#253=ORIENTED_EDGE('',*,*,#170,.T.);
#254=ORIENTED_EDGE('',*,*,#167,.T.);
#255=ORIENTED_EDGE('',*,*,#164,.T.);
#256=ORIENTED_EDGE('',*,*,#161,.T.);
#257=ORIENTED_EDGE('',*,*,#195,.T.);
#258=ORIENTED_EDGE('',*,*,#185,.F.);
#259=ORIENTED_EDGE('',*,*,#189,.F.);
#260=ORIENTED_EDGE('',*,*,#192,.F.);
#261=ORIENTED_EDGE('',*,*,#183,.F.);
#262=ORIENTED_EDGE('',*,*,#173,.F.);
#263=ORIENTED_EDGE('',*,*,#177,.F.);
#264=ORIENTED_EDGE('',*,*,#180,.F.);
#265=ORIENTED_EDGE('',*,*,#172,.T.);
#266=ORIENTED_EDGE('',*,*,#169,.T.);
#267=ORIENTED_EDGE('',*,*,#166,.T.);
#268=ORIENTED_EDGE('',*,*,#163,.T.);
#269=CYLINDRICAL_SURFACE('',#289,1.45);
#270=CYLINDRICAL_SURFACE('',#292,1.45);
#271=CYLINDRICAL_SURFACE('',#295,1.45);
#272=CYLINDRICAL_SURFACE('',#298,1.45);
#273=ADVANCED_FACE('',(#35),#269,.F.);
#274=ADVANCED_FACE('',(#36),#270,.F.);
#275=ADVANCED_FACE('',(#37),#271,.F.);
#276=ADVANCED_FACE('',(#38),#272,.F.);
#277=ADVANCED_FACE('',(#39),#25,.T.);
#278=ADVANCED_FACE('',(#40),#26,.T.);
#279=ADVANCED_FACE('',(#41),#27,.T.);
#280=ADVANCED_FACE('',(#42),#28,.T.);
#281=ADVANCED_FACE('',(#43),#29,.T.);
#282=ADVANCED_FACE('',(#44),#30,.T.);
#283=ADVANCED_FACE('',(#45),#31,.T.);
#284=ADVANCED_FACE('',(#46),#32,.T.);
#285=ADVANCED_FACE('',(#47,#15,#16,#17,#18,#19),#33,.T.);
#286=ADVANCED_FACE('',(#48,#20,#21,#22,#23,#24),#34,.F.);
#287=CLOSED_SHELL('',(#273,#274,#275,#276,#277,#278,#279,#280,#281,#282,
#283,#284,#285,#286));
#288=AXIS2_PLACEMENT_3D('',#385,#311,#312);
#289=AXIS2_PLACEMENT_3D('',#386,#313,#314);
#290=AXIS2_PLACEMENT_3D('',#388,#315,#316);
#291=AXIS2_PLACEMENT_3D('',#391,#318,#319);
#292=AXIS2_PLACEMENT_3D('',#392,#320,#321);
#293=AXIS2_PLACEMENT_3D('',#394,#322,#323);
#294=AXIS2_PLACEMENT_3D('',#397,#325,#326);
#295=AXIS2_PLACEMENT_3D('',#398,#327,#328);
#296=AXIS2_PLACEMENT_3D('',#400,#329,#330);
#297=AXIS2_PLACEMENT_3D('',#403,#332,#333);
#298=AXIS2_PLACEMENT_3D('',#404,#334,#335);
#299=AXIS2_PLACEMENT_3D('',#406,#336,#337);
#300=AXIS2_PLACEMENT_3D('',#409,#339,#340);
#301=AXIS2_PLACEMENT_3D('',#410,#341,#342);
#302=AXIS2_PLACEMENT_3D('',#419,#347,#348);
#303=AXIS2_PLACEMENT_3D('',#425,#352,#353);
#304=AXIS2_PLACEMENT_3D('',#431,#357,#358);
#305=AXIS2_PLACEMENT_3D('',#434,#361,#362);
#306=AXIS2_PLACEMENT_3D('',#443,#367,#368);
#307=AXIS2_PLACEMENT_3D('',#449,#372,#373);
#308=AXIS2_PLACEMENT_3D('',#455,#377,#378);
#309=AXIS2_PLACEMENT_3D('',#458,#381,#382);
#310=AXIS2_PLACEMENT_3D('',#459,#383,#384);
#311=DIRECTION('axis',(0.,0.,1.));
#312=DIRECTION('refdir',(1.,0.,0.));
#313=DIRECTION('center_axis',(0.,0.,-1.));
#314=DIRECTION('ref_axis',(-1.,0.,0.));
#315=DIRECTION('center_axis',(0.,0.,-1.));
#316=DIRECTION('ref_axis',(-1.,0.,0.));
#317=DIRECTION('',(0.,0.,-1.));
#318=DIRECTION('center_axis',(0.,0.,1.));
#319=DIRECTION('ref_axis',(-1.,0.,0.));
#320=DIRECTION('center_axis',(0.,0.,-1.));
#321=DIRECTION('ref_axis',(-1.,0.,0.));
#322=DIRECTION('center_axis',(0.,0.,-1.));
#323=DIRECTION('ref_axis',(-1.,0.,0.));
#324=DIRECTION('',(0.,0.,-1.));
#325=DIRECTION('center_axis',(0.,0.,1.));
#326=DIRECTION('ref_axis',(-1.,0.,0.));
#327=DIRECTION('center_axis',(0.,0.,-1.));
#328=DIRECTION('ref_axis',(-1.,0.,0.));
#329=DIRECTION('center_axis',(0.,0.,-1.));
#330=DIRECTION('ref_axis',(-1.,0.,0.));
#331=DIRECTION('',(0.,0.,-1.));
#332=DIRECTION('center_axis',(0.,0.,1.));
#333=DIRECTION('ref_axis',(-1.,0.,0.));
#334=DIRECTION('center_axis',(0.,0.,-1.));
#335=DIRECTION('ref_axis',(-1.,0.,0.));
#336=DIRECTION('center_axis',(0.,0.,-1.));
#337=DIRECTION('ref_axis',(-1.,0.,0.));
#338=DIRECTION('',(0.,0.,-1.));
#339=DIRECTION('center_axis',(0.,0.,1.));
#340=DIRECTION('ref_axis',(-1.,0.,0.));
#341=DIRECTION('center_axis',(0.,-1.,0.));
#342=DIRECTION('ref_axis',(1.,0.,0.));
#343=DIRECTION('',(1.,0.,0.));
#344=DIRECTION('',(0.,0.,1.));
#345=DIRECTION('',(1.,0.,0.));
#346=DIRECTION('',(0.,0.,1.));
#347=DIRECTION('center_axis',(1.,0.,0.));
#348=DIRECTION('ref_axis',(0.,1.,0.));
#349=DIRECTION('',(0.,1.,0.));
#350=DIRECTION('',(0.,1.,0.));
#351=DIRECTION('',(0.,0.,1.));
#352=DIRECTION('center_axis',(0.,1.,0.));
#353=DIRECTION('ref_axis',(-1.,0.,0.));
#354=DIRECTION('',(-1.,0.,0.));
#355=DIRECTION('',(-1.,0.,0.));
#356=DIRECTION('',(0.,0.,1.));
#357=DIRECTION('center_axis',(-1.,0.,0.));
#358=DIRECTION('ref_axis',(0.,-1.,0.));
#359=DIRECTION('',(0.,-1.,0.));
#360=DIRECTION('',(0.,-1.,0.));
#361=DIRECTION('center_axis',(0.,-1.,0.));
#362=DIRECTION('ref_axis',(1.,0.,0.));
#363=DIRECTION('',(1.,0.,0.));
#364=DIRECTION('',(0.,0.,1.));
#365=DIRECTION('',(1.,0.,0.));
#366=DIRECTION('',(0.,0.,1.));
#367=DIRECTION('center_axis',(-1.,0.,0.));
#368=DIRECTION('ref_axis',(0.,-1.,0.));
#369=DIRECTION('',(0.,-1.,0.));
#370=DIRECTION('',(0.,-1.,0.));
#371=DIRECTION('',(0.,0.,1.));
#372=DIRECTION('center_axis',(0.,1.,0.));
#373=DIRECTION('ref_axis',(-1.,0.,0.));
#374=DIRECTION('',(-1.,0.,0.));
#375=DIRECTION('',(-1.,0.,0.));
#376=DIRECTION('',(0.,0.,1.));
#377=DIRECTION('center_axis',(1.,0.,0.));
#378=DIRECTION('ref_axis',(0.,1.,0.));
#379=DIRECTION('',(0.,-1.,0.));
#380=DIRECTION('',(0.,1.,0.));
#381=DIRECTION('center_axis',(0.,0.,1.));
#382=DIRECTION('ref_axis',(1.,0.,0.));
#383=DIRECTION('center_axis',(0.,0.,1.));
#384=DIRECTION('ref_axis',(-1.,0.,0.));
#385=CARTESIAN_POINT('',(0.,0.,0.));
#386=CARTESIAN_POINT('Origin',(114.785122665237,-134.970028795599,16.));
#387=CARTESIAN_POINT('',(116.235122665237,-134.970028795599,16.));
#388=CARTESIAN_POINT('Origin',(114.785122665237,-134.970028795599,16.));
#389=CARTESIAN_POINT('',(116.235122665237,-134.970028795599,13.));
#390=CARTESIAN_POINT('',(116.235122665237,-134.970028795599,16.));
#391=CARTESIAN_POINT('Origin',(114.785122665237,-134.970028795599,13.));
#392=CARTESIAN_POINT('Origin',(114.785122665237,-36.5395021414396,16.));
#393=CARTESIAN_POINT('',(116.235122665237,-36.5395021414396,16.));
#394=CARTESIAN_POINT('Origin',(114.785122665237,-36.5395021414396,16.));
#395=CARTESIAN_POINT('',(116.235122665237,-36.5395021414396,13.));
#396=CARTESIAN_POINT('',(116.235122665237,-36.5395021414396,16.));
#397=CARTESIAN_POINT('Origin',(114.785122665237,-36.5395021414396,13.));
#398=CARTESIAN_POINT('Origin',(212.405521528004,-134.970028795599,16.));
#399=CARTESIAN_POINT('',(213.855521528004,-134.970028795599,16.));
#400=CARTESIAN_POINT('Origin',(212.405521528004,-134.970028795599,16.));
#401=CARTESIAN_POINT('',(213.855521528004,-134.970028795599,13.));
#402=CARTESIAN_POINT('',(213.855521528004,-134.970028795599,16.));
#403=CARTESIAN_POINT('Origin',(212.405521528004,-134.970028795599,13.));
#404=CARTESIAN_POINT('Origin',(211.595393736612,-36.5395021414396,16.));
#405=CARTESIAN_POINT('',(213.045393736612,-36.5395021414396,16.));
#406=CARTESIAN_POINT('Origin',(211.595393736612,-36.5395021414396,16.));
#407=CARTESIAN_POINT('',(213.045393736612,-36.5395021414396,13.));
#408=CARTESIAN_POINT('',(213.045393736612,-36.5395021414396,16.));
#409=CARTESIAN_POINT('Origin',(211.595393736612,-36.5395021414396,13.));
#410=CARTESIAN_POINT('Origin',(132.8813580907,-62.7779414572092,13.));
#411=CARTESIAN_POINT('',(132.8813580907,-62.7779414572092,13.));
#412=CARTESIAN_POINT('',(192.8813580907,-62.7779414572092,13.));
#413=CARTESIAN_POINT('',(108.425,-62.7779414572092,13.));
#414=CARTESIAN_POINT('',(192.8813580907,-62.7779414572092,16.));
#415=CARTESIAN_POINT('',(192.8813580907,-62.7779414572092,13.));
#416=CARTESIAN_POINT('',(132.8813580907,-62.7779414572092,16.));
#417=CARTESIAN_POINT('',(108.425,-62.7779414572092,16.));
#418=CARTESIAN_POINT('',(132.8813580907,-62.7779414572092,13.));
#419=CARTESIAN_POINT('Origin',(132.8813580907,-122.777941457209,13.));
#420=CARTESIAN_POINT('',(132.8813580907,-122.777941457209,13.));
#421=CARTESIAN_POINT('',(132.8813580907,-31.175,13.));
#422=CARTESIAN_POINT('',(132.8813580907,-122.777941457209,16.));
#423=CARTESIAN_POINT('',(132.8813580907,-31.175,16.));
#424=CARTESIAN_POINT('',(132.8813580907,-122.777941457209,13.));
#425=CARTESIAN_POINT('Origin',(192.8813580907,-122.777941457209,13.));
#426=CARTESIAN_POINT('',(192.8813580907,-122.777941457209,13.));
#427=CARTESIAN_POINT('',(218.425,-122.777941457209,13.));
#428=CARTESIAN_POINT('',(192.8813580907,-122.777941457209,16.));
#429=CARTESIAN_POINT('',(218.425,-122.777941457209,16.));
#430=CARTESIAN_POINT('',(192.8813580907,-122.777941457209,13.));
#431=CARTESIAN_POINT('Origin',(192.8813580907,-62.7779414572092,13.));
#432=CARTESIAN_POINT('',(192.8813580907,-141.175,13.));
#433=CARTESIAN_POINT('',(192.8813580907,-141.175,16.));
#434=CARTESIAN_POINT('Origin',(108.425,-141.175,13.));
#435=CARTESIAN_POINT('',(108.425,-141.175,13.));
#436=CARTESIAN_POINT('',(218.425,-141.175,13.));
#437=CARTESIAN_POINT('',(108.425,-141.175,13.));
#438=CARTESIAN_POINT('',(218.425,-141.175,16.));
#439=CARTESIAN_POINT('',(218.425,-141.175,13.));
#440=CARTESIAN_POINT('',(108.425,-141.175,16.));
#441=CARTESIAN_POINT('',(108.425,-141.175,16.));
#442=CARTESIAN_POINT('',(108.425,-141.175,13.));
#443=CARTESIAN_POINT('Origin',(108.425,-31.175,13.));
#444=CARTESIAN_POINT('',(108.425,-31.175,13.));
#445=CARTESIAN_POINT('',(108.425,-31.175,13.));
#446=CARTESIAN_POINT('',(108.425,-31.175,16.));
#447=CARTESIAN_POINT('',(108.425,-31.175,16.));
#448=CARTESIAN_POINT('',(108.425,-31.175,13.));
#449=CARTESIAN_POINT('Origin',(218.425,-31.175,13.));
#450=CARTESIAN_POINT('',(218.425,-31.175,13.));
#451=CARTESIAN_POINT('',(218.425,-31.175,13.));
#452=CARTESIAN_POINT('',(218.425,-31.175,16.));
#453=CARTESIAN_POINT('',(218.425,-31.175,16.));
#454=CARTESIAN_POINT('',(218.425,-31.175,13.));
#455=CARTESIAN_POINT('Origin',(218.425,-141.175,13.));
#456=CARTESIAN_POINT('',(218.425,-31.175,13.));
#457=CARTESIAN_POINT('',(218.425,-31.175,16.));
#458=CARTESIAN_POINT('Origin',(163.425,-86.175,16.));
#459=CARTESIAN_POINT('Origin',(163.425,-86.175,13.));
#460=UNCERTAINTY_MEASURE_WITH_UNIT(LENGTH_MEASURE(0.01),#464,
'DISTANCE_ACCURACY_VALUE',
'Maximum model space distance between geometric entities at asserted c
onnectivities');
#461=UNCERTAINTY_MEASURE_WITH_UNIT(LENGTH_MEASURE(0.01),#464,
'DISTANCE_ACCURACY_VALUE',
'Maximum model space distance between geometric entities at asserted c
onnectivities');
#462=(
GEOMETRIC_REPRESENTATION_CONTEXT(3)
GLOBAL_UNCERTAINTY_ASSIGNED_CONTEXT((#460))
GLOBAL_UNIT_ASSIGNED_CONTEXT((#464,#465,#466))
REPRESENTATION_CONTEXT('','3D')
);
#463=(
GEOMETRIC_REPRESENTATION_CONTEXT(3)
GLOBAL_UNCERTAINTY_ASSIGNED_CONTEXT((#461))
GLOBAL_UNIT_ASSIGNED_CONTEXT((#464,#465,#466))
REPRESENTATION_CONTEXT('','3D')
);
#464=(
LENGTH_UNIT()
NAMED_UNIT(*)
SI_UNIT(.MILLI.,.METRE.)
);
#465=(
NAMED_UNIT(*)
PLANE_ANGLE_UNIT()
SI_UNIT($,.RADIAN.)
);
#466=(
NAMED_UNIT(*)
SI_UNIT($,.STERADIAN.)
SOLID_ANGLE_UNIT()
);
#467=SHAPE_DEFINITION_REPRESENTATION(#468,#469);
#468=PRODUCT_DEFINITION_SHAPE('',$,#471);
#469=SHAPE_REPRESENTATION('',(#288),#462);
#470=PRODUCT_DEFINITION_CONTEXT('part definition',#475,'design');
#471=PRODUCT_DEFINITION('2026-08-14-00-18-14-912','HackPadfinaltryFRFR',
#472,#470);
#472=PRODUCT_DEFINITION_FORMATION('',$,#477);
#473=PRODUCT_RELATED_PRODUCT_CATEGORY('HackPadfinaltryFRFR',
'HackPadfinaltryFRFR',(#477));
#474=APPLICATION_PROTOCOL_DEFINITION('international standard',
'automotive_design',2009,#475);
#475=APPLICATION_CONTEXT(
'Core Data for Automotive Mechanical Design Process');
#476=PRODUCT_CONTEXT('part definition',#475,'mechanical');
#477=PRODUCT('2026-08-14-00-18-14-912','HackPadfinaltryFRFR',$,(#476));
#478=PRESENTATION_STYLE_ASSIGNMENT((#481));
#479=PRESENTATION_STYLE_ASSIGNMENT((#482));
#480=PRESENTATION_STYLE_ASSIGNMENT((#483));
#481=SURFACE_STYLE_USAGE(.BOTH.,#484);
#482=SURFACE_STYLE_USAGE(.BOTH.,#485);
#483=SURFACE_STYLE_USAGE(.BOTH.,#486);
#484=SURFACE_SIDE_STYLE('',(#487));
#485=SURFACE_SIDE_STYLE('',(#488));
#486=SURFACE_SIDE_STYLE('',(#489));
#487=SURFACE_STYLE_FILL_AREA(#490);
#488=SURFACE_STYLE_FILL_AREA(#491);
#489=SURFACE_STYLE_FILL_AREA(#492);
#490=FILL_AREA_STYLE('Steel - Satin',(#493));
#491=FILL_AREA_STYLE('PEEK',(#494));
#492=FILL_AREA_STYLE('Plastic - Translucent Glossy (Green)',(#495));
#493=FILL_AREA_STYLE_COLOUR('Steel - Satin',#496);
#494=FILL_AREA_STYLE_COLOUR('PEEK',#497);
#495=FILL_AREA_STYLE_COLOUR('Plastic - Translucent Glossy (Green)',#498);
#496=COLOUR_RGB('Steel - Satin',0.627450980392157,0.627450980392157,0.627450980392157);
#497=COLOUR_RGB('PEEK',0.6,0.509803921568627,0.368627450980392);
#498=COLOUR_RGB('Plastic - Translucent Glossy (Green)',0.266666666666667,
0.588235294117647,0.282352941176471);
ENDSEC;
END-ISO-10303-21;
