ISO-10303-21;
HEADER;
/* Generated by software containing ST-Developer
 * from STEP Tools, Inc. (www.steptools.com) 
 */

FILE_DESCRIPTION(
/* description */ (''),
/* implementation_level */ '2;1');

FILE_NAME(
/* name */ 'bottom.step',
/* time_stamp */ '2026-08-16T22:23:59-04:00',
/* author */ (''),
/* organization */ (''),
/* preprocessor_version */ 'ST-DEVELOPER v20.1',
/* originating_system */ 'Autodesk Translation Framework v15.8.0.0',
/* authorisation */ '');

FILE_SCHEMA (('AUTOMOTIVE_DESIGN { 1 0 10303 214 3 1 1 }'));
ENDSEC;

DATA;
#10=MECHANICAL_DESIGN_GEOMETRIC_PRESENTATION_REPRESENTATION('',(#13),#595);
#11=SHAPE_REPRESENTATION_RELATIONSHIP('SRR','None',#601,#12);
#12=ADVANCED_BREP_SHAPE_REPRESENTATION('',(#14),#594);
#13=STYLED_ITEM('',(#611),#14);
#14=MANIFOLD_SOLID_BREP('Body5',#371);
#15=FACE_BOUND('',#69,.T.);
#16=FACE_BOUND('',#70,.T.);
#17=FACE_BOUND('',#71,.T.);
#18=FACE_BOUND('',#72,.T.);
#19=FACE_BOUND('',#73,.T.);
#20=FACE_BOUND('',#78,.T.);
#21=FACE_BOUND('',#80,.T.);
#22=FACE_BOUND('',#81,.T.);
#23=FACE_BOUND('',#82,.T.);
#24=FACE_BOUND('',#83,.T.);
#25=PLANE('',#385);
#26=PLANE('',#386);
#27=PLANE('',#387);
#28=PLANE('',#388);
#29=PLANE('',#389);
#30=PLANE('',#390);
#31=PLANE('',#391);
#32=PLANE('',#392);
#33=PLANE('',#393);
#34=PLANE('',#394);
#35=PLANE('',#395);
#36=PLANE('',#396);
#37=PLANE('',#397);
#38=PLANE('',#398);
#39=FACE_OUTER_BOUND('',#57,.T.);
#40=FACE_OUTER_BOUND('',#58,.T.);
#41=FACE_OUTER_BOUND('',#59,.T.);
#42=FACE_OUTER_BOUND('',#60,.T.);
#43=FACE_OUTER_BOUND('',#61,.T.);
#44=FACE_OUTER_BOUND('',#62,.T.);
#45=FACE_OUTER_BOUND('',#63,.T.);
#46=FACE_OUTER_BOUND('',#64,.T.);
#47=FACE_OUTER_BOUND('',#65,.T.);
#48=FACE_OUTER_BOUND('',#66,.T.);
#49=FACE_OUTER_BOUND('',#67,.T.);
#50=FACE_OUTER_BOUND('',#68,.T.);
#51=FACE_OUTER_BOUND('',#74,.T.);
#52=FACE_OUTER_BOUND('',#75,.T.);
#53=FACE_OUTER_BOUND('',#76,.T.);
#54=FACE_OUTER_BOUND('',#77,.T.);
#55=FACE_OUTER_BOUND('',#79,.T.);
#56=FACE_OUTER_BOUND('',#84,.T.);
#57=EDGE_LOOP('',(#253,#254,#255,#256));
#58=EDGE_LOOP('',(#257,#258,#259,#260));
#59=EDGE_LOOP('',(#261,#262,#263,#264));
#60=EDGE_LOOP('',(#265,#266,#267,#268));
#61=EDGE_LOOP('',(#269,#270,#271,#272));
#62=EDGE_LOOP('',(#273,#274,#275,#276));
#63=EDGE_LOOP('',(#277,#278,#279,#280));
#64=EDGE_LOOP('',(#281,#282,#283,#284,#285,#286,#287,#288));
#65=EDGE_LOOP('',(#289,#290,#291,#292));
#66=EDGE_LOOP('',(#293,#294,#295,#296));
#67=EDGE_LOOP('',(#297,#298,#299,#300));
#68=EDGE_LOOP('',(#301,#302,#303,#304));
#69=EDGE_LOOP('',(#305,#306,#307,#308));
#70=EDGE_LOOP('',(#309));
#71=EDGE_LOOP('',(#310));
#72=EDGE_LOOP('',(#311));
#73=EDGE_LOOP('',(#312));
#74=EDGE_LOOP('',(#313,#314,#315,#316));
#75=EDGE_LOOP('',(#317,#318,#319,#320));
#76=EDGE_LOOP('',(#321,#322,#323,#324));
#77=EDGE_LOOP('',(#325,#326,#327,#328));
#78=EDGE_LOOP('',(#329,#330,#331,#332));
#79=EDGE_LOOP('',(#333,#334,#335,#336));
#80=EDGE_LOOP('',(#337));
#81=EDGE_LOOP('',(#338));
#82=EDGE_LOOP('',(#339));
#83=EDGE_LOOP('',(#340));
#84=EDGE_LOOP('',(#341,#342,#343,#344,#345,#346,#347,#348));
#85=LINE('',#498,#125);
#86=LINE('',#504,#126);
#87=LINE('',#510,#127);
#88=LINE('',#516,#128);
#89=LINE('',#521,#129);
#90=LINE('',#523,#130);
#91=LINE('',#525,#131);
#92=LINE('',#526,#132);
#93=LINE('',#530,#133);
#94=LINE('',#532,#134);
#95=LINE('',#534,#135);
#96=LINE('',#535,#136);
#97=LINE('',#537,#137);
#98=LINE('',#538,#138);
#99=LINE('',#541,#139);
#100=LINE('',#543,#140);
#101=LINE('',#545,#141);
#102=LINE('',#547,#142);
#103=LINE('',#548,#143);
#104=LINE('',#551,#144);
#105=LINE('',#553,#145);
#106=LINE('',#554,#146);
#107=LINE('',#557,#147);
#108=LINE('',#559,#148);
#109=LINE('',#560,#149);
#110=LINE('',#562,#150);
#111=LINE('',#563,#151);
#112=LINE('',#567,#152);
#113=LINE('',#569,#153);
#114=LINE('',#571,#154);
#115=LINE('',#572,#155);
#116=LINE('',#575,#156);
#117=LINE('',#577,#157);
#118=LINE('',#578,#158);
#119=LINE('',#581,#159);
#120=LINE('',#582,#160);
#121=LINE('',#585,#161);
#122=LINE('',#586,#162);
#123=LINE('',#588,#163);
#124=LINE('',#589,#164);
#125=VECTOR('',#405,1.45);
#126=VECTOR('',#412,1.45);
#127=VECTOR('',#419,1.45);
#128=VECTOR('',#426,1.45);
#129=VECTOR('',#431,10.);
#130=VECTOR('',#432,10.);
#131=VECTOR('',#433,10.);
#132=VECTOR('',#434,10.);
#133=VECTOR('',#437,10.);
#134=VECTOR('',#438,10.);
#135=VECTOR('',#439,10.);
#136=VECTOR('',#440,10.);
#137=VECTOR('',#443,10.);
#138=VECTOR('',#444,10.);
#139=VECTOR('',#447,10.);
#140=VECTOR('',#448,10.);
#141=VECTOR('',#449,10.);
#142=VECTOR('',#450,10.);
#143=VECTOR('',#451,10.);
#144=VECTOR('',#454,10.);
#145=VECTOR('',#455,10.);
#146=VECTOR('',#456,10.);
#147=VECTOR('',#459,10.);
#148=VECTOR('',#460,10.);
#149=VECTOR('',#461,10.);
#150=VECTOR('',#464,10.);
#151=VECTOR('',#465,10.);
#152=VECTOR('',#468,10.);
#153=VECTOR('',#469,10.);
#154=VECTOR('',#470,10.);
#155=VECTOR('',#471,10.);
#156=VECTOR('',#474,10.);
#157=VECTOR('',#475,10.);
#158=VECTOR('',#476,10.);
#159=VECTOR('',#479,10.);
#160=VECTOR('',#480,10.);
#161=VECTOR('',#483,10.);
#162=VECTOR('',#484,10.);
#163=VECTOR('',#487,10.);
#164=VECTOR('',#488,10.);
#165=CIRCLE('',#374,1.45);
#166=CIRCLE('',#375,1.45);
#167=CIRCLE('',#377,1.45);
#168=CIRCLE('',#378,1.45);
#169=CIRCLE('',#380,1.45);
#170=CIRCLE('',#381,1.45);
#171=CIRCLE('',#383,1.45);
#172=CIRCLE('',#384,1.45);
#173=VERTEX_POINT('',#495);
#174=VERTEX_POINT('',#497);
#175=VERTEX_POINT('',#501);
#176=VERTEX_POINT('',#503);
#177=VERTEX_POINT('',#507);
#178=VERTEX_POINT('',#509);
#179=VERTEX_POINT('',#513);
#180=VERTEX_POINT('',#515);
#181=VERTEX_POINT('',#519);
#182=VERTEX_POINT('',#520);
#183=VERTEX_POINT('',#522);
#184=VERTEX_POINT('',#524);
#185=VERTEX_POINT('',#528);
#186=VERTEX_POINT('',#529);
#187=VERTEX_POINT('',#531);
#188=VERTEX_POINT('',#533);
#189=VERTEX_POINT('',#540);
#190=VERTEX_POINT('',#542);
#191=VERTEX_POINT('',#544);
#192=VERTEX_POINT('',#546);
#193=VERTEX_POINT('',#550);
#194=VERTEX_POINT('',#552);
#195=VERTEX_POINT('',#556);
#196=VERTEX_POINT('',#558);
#197=VERTEX_POINT('',#565);
#198=VERTEX_POINT('',#566);
#199=VERTEX_POINT('',#568);
#200=VERTEX_POINT('',#570);
#201=VERTEX_POINT('',#574);
#202=VERTEX_POINT('',#576);
#203=VERTEX_POINT('',#580);
#204=VERTEX_POINT('',#584);
#205=EDGE_CURVE('',#173,#173,#165,.T.);
#206=EDGE_CURVE('',#173,#174,#85,.T.);
#207=EDGE_CURVE('',#174,#174,#166,.T.);
#208=EDGE_CURVE('',#175,#175,#167,.T.);
#209=EDGE_CURVE('',#175,#176,#86,.T.);
#210=EDGE_CURVE('',#176,#176,#168,.T.);
#211=EDGE_CURVE('',#177,#177,#169,.T.);
#212=EDGE_CURVE('',#177,#178,#87,.T.);
#213=EDGE_CURVE('',#178,#178,#170,.T.);
#214=EDGE_CURVE('',#179,#179,#171,.T.);
#215=EDGE_CURVE('',#179,#180,#88,.T.);
#216=EDGE_CURVE('',#180,#180,#172,.T.);
#217=EDGE_CURVE('',#181,#182,#89,.T.);
#218=EDGE_CURVE('',#183,#181,#90,.T.);
#219=EDGE_CURVE('',#184,#183,#91,.T.);
#220=EDGE_CURVE('',#184,#182,#92,.T.);
#221=EDGE_CURVE('',#185,#186,#93,.T.);
#222=EDGE_CURVE('',#187,#185,#94,.T.);
#223=EDGE_CURVE('',#188,#187,#95,.T.);
#224=EDGE_CURVE('',#188,#186,#96,.T.);
#225=EDGE_CURVE('',#186,#181,#97,.T.);
#226=EDGE_CURVE('',#183,#188,#98,.T.);
#227=EDGE_CURVE('',#189,#187,#99,.T.);
#228=EDGE_CURVE('',#189,#190,#100,.T.);
#229=EDGE_CURVE('',#191,#190,#101,.T.);
#230=EDGE_CURVE('',#192,#191,#102,.T.);
#231=EDGE_CURVE('',#184,#192,#103,.T.);
#232=EDGE_CURVE('',#192,#193,#104,.T.);
#233=EDGE_CURVE('',#194,#191,#105,.T.);
#234=EDGE_CURVE('',#193,#194,#106,.T.);
#235=EDGE_CURVE('',#193,#195,#107,.T.);
#236=EDGE_CURVE('',#196,#194,#108,.T.);
#237=EDGE_CURVE('',#195,#196,#109,.T.);
#238=EDGE_CURVE('',#195,#189,#110,.T.);
#239=EDGE_CURVE('',#190,#196,#111,.T.);
#240=EDGE_CURVE('',#197,#198,#112,.T.);
#241=EDGE_CURVE('',#198,#199,#113,.T.);
#242=EDGE_CURVE('',#199,#200,#114,.T.);
#243=EDGE_CURVE('',#200,#197,#115,.T.);
#244=EDGE_CURVE('',#201,#199,#116,.T.);
#245=EDGE_CURVE('',#202,#201,#117,.T.);
#246=EDGE_CURVE('',#200,#202,#118,.T.);
#247=EDGE_CURVE('',#203,#202,#119,.T.);
#248=EDGE_CURVE('',#197,#203,#120,.T.);
#249=EDGE_CURVE('',#204,#203,#121,.T.);
#250=EDGE_CURVE('',#198,#204,#122,.T.);
#251=EDGE_CURVE('',#201,#204,#123,.T.);
#252=EDGE_CURVE('',#182,#185,#124,.T.);
#253=ORIENTED_EDGE('',*,*,#205,.F.);
#254=ORIENTED_EDGE('',*,*,#206,.T.);
#255=ORIENTED_EDGE('',*,*,#207,.F.);
#256=ORIENTED_EDGE('',*,*,#206,.F.);
#257=ORIENTED_EDGE('',*,*,#208,.F.);
#258=ORIENTED_EDGE('',*,*,#209,.T.);
#259=ORIENTED_EDGE('',*,*,#210,.F.);
#260=ORIENTED_EDGE('',*,*,#209,.F.);
#261=ORIENTED_EDGE('',*,*,#211,.F.);
#262=ORIENTED_EDGE('',*,*,#212,.T.);
#263=ORIENTED_EDGE('',*,*,#213,.F.);
#264=ORIENTED_EDGE('',*,*,#212,.F.);
#265=ORIENTED_EDGE('',*,*,#214,.F.);
#266=ORIENTED_EDGE('',*,*,#215,.T.);
#267=ORIENTED_EDGE('',*,*,#216,.F.);
#268=ORIENTED_EDGE('',*,*,#215,.F.);
#269=ORIENTED_EDGE('',*,*,#217,.F.);
#270=ORIENTED_EDGE('',*,*,#218,.F.);
#271=ORIENTED_EDGE('',*,*,#219,.F.);
#272=ORIENTED_EDGE('',*,*,#220,.T.);
#273=ORIENTED_EDGE('',*,*,#221,.F.);
#274=ORIENTED_EDGE('',*,*,#222,.F.);
#275=ORIENTED_EDGE('',*,*,#223,.F.);
#276=ORIENTED_EDGE('',*,*,#224,.T.);
#277=ORIENTED_EDGE('',*,*,#225,.F.);
#278=ORIENTED_EDGE('',*,*,#224,.F.);
#279=ORIENTED_EDGE('',*,*,#226,.F.);
#280=ORIENTED_EDGE('',*,*,#218,.T.);
#281=ORIENTED_EDGE('',*,*,#219,.T.);
#282=ORIENTED_EDGE('',*,*,#226,.T.);
#283=ORIENTED_EDGE('',*,*,#223,.T.);
#284=ORIENTED_EDGE('',*,*,#227,.F.);
#285=ORIENTED_EDGE('',*,*,#228,.T.);
#286=ORIENTED_EDGE('',*,*,#229,.F.);
#287=ORIENTED_EDGE('',*,*,#230,.F.);
#288=ORIENTED_EDGE('',*,*,#231,.F.);
#289=ORIENTED_EDGE('',*,*,#232,.F.);
#290=ORIENTED_EDGE('',*,*,#230,.T.);
#291=ORIENTED_EDGE('',*,*,#233,.F.);
#292=ORIENTED_EDGE('',*,*,#234,.F.);
#293=ORIENTED_EDGE('',*,*,#235,.F.);
#294=ORIENTED_EDGE('',*,*,#234,.T.);
#295=ORIENTED_EDGE('',*,*,#236,.F.);
#296=ORIENTED_EDGE('',*,*,#237,.F.);
#297=ORIENTED_EDGE('',*,*,#238,.F.);
#298=ORIENTED_EDGE('',*,*,#237,.T.);
#299=ORIENTED_EDGE('',*,*,#239,.F.);
#300=ORIENTED_EDGE('',*,*,#228,.F.);
#301=ORIENTED_EDGE('',*,*,#240,.T.);
#302=ORIENTED_EDGE('',*,*,#241,.T.);
#303=ORIENTED_EDGE('',*,*,#242,.T.);
#304=ORIENTED_EDGE('',*,*,#243,.T.);
#305=ORIENTED_EDGE('',*,*,#239,.T.);
#306=ORIENTED_EDGE('',*,*,#236,.T.);
#307=ORIENTED_EDGE('',*,*,#233,.T.);
#308=ORIENTED_EDGE('',*,*,#229,.T.);
#309=ORIENTED_EDGE('',*,*,#214,.T.);
#310=ORIENTED_EDGE('',*,*,#211,.T.);
#311=ORIENTED_EDGE('',*,*,#208,.T.);
#312=ORIENTED_EDGE('',*,*,#205,.T.);
#313=ORIENTED_EDGE('',*,*,#244,.F.);
#314=ORIENTED_EDGE('',*,*,#245,.F.);
#315=ORIENTED_EDGE('',*,*,#246,.F.);
#316=ORIENTED_EDGE('',*,*,#242,.F.);
#317=ORIENTED_EDGE('',*,*,#246,.T.);
#318=ORIENTED_EDGE('',*,*,#247,.F.);
#319=ORIENTED_EDGE('',*,*,#248,.F.);
#320=ORIENTED_EDGE('',*,*,#243,.F.);
#321=ORIENTED_EDGE('',*,*,#248,.T.);
#322=ORIENTED_EDGE('',*,*,#249,.F.);
#323=ORIENTED_EDGE('',*,*,#250,.F.);
#324=ORIENTED_EDGE('',*,*,#240,.F.);
#325=ORIENTED_EDGE('',*,*,#250,.T.);
#326=ORIENTED_EDGE('',*,*,#251,.F.);
#327=ORIENTED_EDGE('',*,*,#244,.T.);
#328=ORIENTED_EDGE('',*,*,#241,.F.);
#329=ORIENTED_EDGE('',*,*,#221,.T.);
#330=ORIENTED_EDGE('',*,*,#225,.T.);
#331=ORIENTED_EDGE('',*,*,#217,.T.);
#332=ORIENTED_EDGE('',*,*,#252,.T.);
#333=ORIENTED_EDGE('',*,*,#251,.T.);
#334=ORIENTED_EDGE('',*,*,#249,.T.);
#335=ORIENTED_EDGE('',*,*,#247,.T.);
#336=ORIENTED_EDGE('',*,*,#245,.T.);
#337=ORIENTED_EDGE('',*,*,#207,.T.);
#338=ORIENTED_EDGE('',*,*,#210,.T.);
#339=ORIENTED_EDGE('',*,*,#213,.T.);
#340=ORIENTED_EDGE('',*,*,#216,.T.);
#341=ORIENTED_EDGE('',*,*,#227,.T.);
#342=ORIENTED_EDGE('',*,*,#222,.T.);
#343=ORIENTED_EDGE('',*,*,#252,.F.);
#344=ORIENTED_EDGE('',*,*,#220,.F.);
#345=ORIENTED_EDGE('',*,*,#231,.T.);
#346=ORIENTED_EDGE('',*,*,#232,.T.);
#347=ORIENTED_EDGE('',*,*,#235,.T.);
#348=ORIENTED_EDGE('',*,*,#238,.T.);
#349=CYLINDRICAL_SURFACE('',#373,1.45);
#350=CYLINDRICAL_SURFACE('',#376,1.45);
#351=CYLINDRICAL_SURFACE('',#379,1.45);
#352=CYLINDRICAL_SURFACE('',#382,1.45);
#353=ADVANCED_FACE('',(#39),#349,.F.);
#354=ADVANCED_FACE('',(#40),#350,.F.);
#355=ADVANCED_FACE('',(#41),#351,.F.);
#356=ADVANCED_FACE('',(#42),#352,.F.);
#357=ADVANCED_FACE('',(#43),#25,.F.);
#358=ADVANCED_FACE('',(#44),#26,.F.);
#359=ADVANCED_FACE('',(#45),#27,.F.);
#360=ADVANCED_FACE('',(#46),#28,.T.);
#361=ADVANCED_FACE('',(#47),#29,.T.);
#362=ADVANCED_FACE('',(#48),#30,.T.);
#363=ADVANCED_FACE('',(#49),#31,.T.);
#364=ADVANCED_FACE('',(#50,#15,#16,#17,#18,#19),#32,.T.);
#365=ADVANCED_FACE('',(#51),#33,.T.);
#366=ADVANCED_FACE('',(#52),#34,.T.);
#367=ADVANCED_FACE('',(#53),#35,.T.);
#368=ADVANCED_FACE('',(#54,#20),#36,.T.);
#369=ADVANCED_FACE('',(#55,#21,#22,#23,#24),#37,.T.);
#370=ADVANCED_FACE('',(#56),#38,.F.);
#371=CLOSED_SHELL('',(#353,#354,#355,#356,#357,#358,#359,#360,#361,#362,
#363,#364,#365,#366,#367,#368,#369,#370));
#372=AXIS2_PLACEMENT_3D('',#493,#399,#400);
#373=AXIS2_PLACEMENT_3D('',#494,#401,#402);
#374=AXIS2_PLACEMENT_3D('',#496,#403,#404);
#375=AXIS2_PLACEMENT_3D('',#499,#406,#407);
#376=AXIS2_PLACEMENT_3D('',#500,#408,#409);
#377=AXIS2_PLACEMENT_3D('',#502,#410,#411);
#378=AXIS2_PLACEMENT_3D('',#505,#413,#414);
#379=AXIS2_PLACEMENT_3D('',#506,#415,#416);
#380=AXIS2_PLACEMENT_3D('',#508,#417,#418);
#381=AXIS2_PLACEMENT_3D('',#511,#420,#421);
#382=AXIS2_PLACEMENT_3D('',#512,#422,#423);
#383=AXIS2_PLACEMENT_3D('',#514,#424,#425);
#384=AXIS2_PLACEMENT_3D('',#517,#427,#428);
#385=AXIS2_PLACEMENT_3D('',#518,#429,#430);
#386=AXIS2_PLACEMENT_3D('',#527,#435,#436);
#387=AXIS2_PLACEMENT_3D('',#536,#441,#442);
#388=AXIS2_PLACEMENT_3D('',#539,#445,#446);
#389=AXIS2_PLACEMENT_3D('',#549,#452,#453);
#390=AXIS2_PLACEMENT_3D('',#555,#457,#458);
#391=AXIS2_PLACEMENT_3D('',#561,#462,#463);
#392=AXIS2_PLACEMENT_3D('',#564,#466,#467);
#393=AXIS2_PLACEMENT_3D('',#573,#472,#473);
#394=AXIS2_PLACEMENT_3D('',#579,#477,#478);
#395=AXIS2_PLACEMENT_3D('',#583,#481,#482);
#396=AXIS2_PLACEMENT_3D('',#587,#485,#486);
#397=AXIS2_PLACEMENT_3D('',#590,#489,#490);
#398=AXIS2_PLACEMENT_3D('',#591,#491,#492);
#399=DIRECTION('axis',(0.,0.,1.));
#400=DIRECTION('refdir',(1.,0.,0.));
#401=DIRECTION('center_axis',(0.,0.,-1.));
#402=DIRECTION('ref_axis',(-1.,0.,0.));
#403=DIRECTION('center_axis',(0.,0.,-1.));
#404=DIRECTION('ref_axis',(-1.,0.,0.));
#405=DIRECTION('',(0.,0.,-1.));
#406=DIRECTION('center_axis',(0.,0.,1.));
#407=DIRECTION('ref_axis',(-1.,0.,0.));
#408=DIRECTION('center_axis',(0.,0.,-1.));
#409=DIRECTION('ref_axis',(-1.,0.,0.));
#410=DIRECTION('center_axis',(0.,0.,-1.));
#411=DIRECTION('ref_axis',(-1.,0.,0.));
#412=DIRECTION('',(0.,0.,-1.));
#413=DIRECTION('center_axis',(0.,0.,1.));
#414=DIRECTION('ref_axis',(-1.,0.,0.));
#415=DIRECTION('center_axis',(0.,0.,-1.));
#416=DIRECTION('ref_axis',(-1.,0.,0.));
#417=DIRECTION('center_axis',(0.,0.,-1.));
#418=DIRECTION('ref_axis',(-1.,0.,0.));
#419=DIRECTION('',(0.,0.,-1.));
#420=DIRECTION('center_axis',(0.,0.,1.));
#421=DIRECTION('ref_axis',(-1.,0.,0.));
#422=DIRECTION('center_axis',(0.,0.,-1.));
#423=DIRECTION('ref_axis',(-1.,0.,0.));
#424=DIRECTION('center_axis',(0.,0.,-1.));
#425=DIRECTION('ref_axis',(-1.,0.,0.));
#426=DIRECTION('',(0.,0.,-1.));
#427=DIRECTION('center_axis',(0.,0.,1.));
#428=DIRECTION('ref_axis',(-1.,0.,0.));
#429=DIRECTION('center_axis',(-1.,0.,0.));
#430=DIRECTION('ref_axis',(0.,0.,1.));
#431=DIRECTION('',(0.,0.,-1.));
#432=DIRECTION('',(0.,1.,0.));
#433=DIRECTION('',(0.,0.,1.));
#434=DIRECTION('',(0.,1.,0.));
#435=DIRECTION('center_axis',(1.,0.,0.));
#436=DIRECTION('ref_axis',(0.,0.,-1.));
#437=DIRECTION('',(0.,0.,1.));
#438=DIRECTION('',(0.,1.,0.));
#439=DIRECTION('',(0.,0.,-1.));
#440=DIRECTION('',(0.,1.,0.));
#441=DIRECTION('center_axis',(0.,0.,1.));
#442=DIRECTION('ref_axis',(1.,0.,0.));
#443=DIRECTION('',(-1.,0.,0.));
#444=DIRECTION('',(1.,0.,0.));
#445=DIRECTION('center_axis',(0.,-1.,0.));
#446=DIRECTION('ref_axis',(1.,0.,0.));
#447=DIRECTION('',(-1.,0.,0.));
#448=DIRECTION('',(0.,0.,1.));
#449=DIRECTION('',(1.,0.,0.));
#450=DIRECTION('',(0.,0.,1.));
#451=DIRECTION('',(-1.,0.,0.));
#452=DIRECTION('center_axis',(1.,0.,0.));
#453=DIRECTION('ref_axis',(0.,1.,0.));
#454=DIRECTION('',(0.,-1.,0.));
#455=DIRECTION('',(0.,1.,0.));
#456=DIRECTION('',(0.,0.,1.));
#457=DIRECTION('center_axis',(0.,1.,0.));
#458=DIRECTION('ref_axis',(-1.,0.,0.));
#459=DIRECTION('',(1.,0.,0.));
#460=DIRECTION('',(-1.,0.,0.));
#461=DIRECTION('',(0.,0.,1.));
#462=DIRECTION('center_axis',(-1.,0.,0.));
#463=DIRECTION('ref_axis',(0.,-1.,0.));
#464=DIRECTION('',(0.,1.,0.));
#465=DIRECTION('',(0.,-1.,0.));
#466=DIRECTION('center_axis',(0.,0.,1.));
#467=DIRECTION('ref_axis',(1.,0.,0.));
#468=DIRECTION('',(0.,1.,0.));
#469=DIRECTION('',(-1.,0.,0.));
#470=DIRECTION('',(0.,-1.,0.));
#471=DIRECTION('',(1.,0.,0.));
#472=DIRECTION('center_axis',(-1.,0.,0.));
#473=DIRECTION('ref_axis',(0.,1.,0.));
#474=DIRECTION('',(0.,0.,1.));
#475=DIRECTION('',(0.,1.,0.));
#476=DIRECTION('',(0.,0.,-1.));
#477=DIRECTION('center_axis',(0.,-1.,0.));
#478=DIRECTION('ref_axis',(-1.,0.,0.));
#479=DIRECTION('',(-1.,0.,0.));
#480=DIRECTION('',(0.,0.,-1.));
#481=DIRECTION('center_axis',(1.,0.,0.));
#482=DIRECTION('ref_axis',(0.,-1.,0.));
#483=DIRECTION('',(0.,-1.,0.));
#484=DIRECTION('',(0.,0.,-1.));
#485=DIRECTION('center_axis',(0.,1.,0.));
#486=DIRECTION('ref_axis',(1.,0.,0.));
#487=DIRECTION('',(1.,0.,0.));
#488=DIRECTION('',(1.,0.,0.));
#489=DIRECTION('center_axis',(0.,0.,-1.));
#490=DIRECTION('ref_axis',(-1.,0.,0.));
#491=DIRECTION('center_axis',(0.,0.,-1.));
#492=DIRECTION('ref_axis',(1.,0.,0.));
#493=CARTESIAN_POINT('',(0.,0.,0.));
#494=CARTESIAN_POINT('Origin',(114.785122665237,-134.970028795599,16.));
#495=CARTESIAN_POINT('',(116.235122665237,-134.970028795599,13.));
#496=CARTESIAN_POINT('Origin',(114.785122665237,-134.970028795599,13.));
#497=CARTESIAN_POINT('',(116.235122665237,-134.970028795599,-3.));
#498=CARTESIAN_POINT('',(116.235122665237,-134.970028795599,16.));
#499=CARTESIAN_POINT('Origin',(114.785122665237,-134.970028795599,-3.));
#500=CARTESIAN_POINT('Origin',(114.785122665237,-36.5395021414396,16.));
#501=CARTESIAN_POINT('',(116.235122665237,-36.5395021414396,13.));
#502=CARTESIAN_POINT('Origin',(114.785122665237,-36.5395021414396,13.));
#503=CARTESIAN_POINT('',(116.235122665237,-36.5395021414396,-3.));
#504=CARTESIAN_POINT('',(116.235122665237,-36.5395021414396,16.));
#505=CARTESIAN_POINT('Origin',(114.785122665237,-36.5395021414396,-3.));
#506=CARTESIAN_POINT('Origin',(212.405521528004,-134.970028795599,16.));
#507=CARTESIAN_POINT('',(213.855521528004,-134.970028795599,13.));
#508=CARTESIAN_POINT('Origin',(212.405521528004,-134.970028795599,13.));
#509=CARTESIAN_POINT('',(213.855521528004,-134.970028795599,-3.));
#510=CARTESIAN_POINT('',(213.855521528004,-134.970028795599,16.));
#511=CARTESIAN_POINT('Origin',(212.405521528004,-134.970028795599,-3.));
#512=CARTESIAN_POINT('Origin',(211.595393736612,-36.5395021414396,16.));
#513=CARTESIAN_POINT('',(213.045393736612,-36.5395021414396,13.));
#514=CARTESIAN_POINT('Origin',(211.595393736612,-36.5395021414396,13.));
#515=CARTESIAN_POINT('',(213.045393736612,-36.5395021414396,-3.));
#516=CARTESIAN_POINT('',(213.045393736612,-36.5395021414396,16.));
#517=CARTESIAN_POINT('Origin',(211.595393736612,-36.5395021414396,-3.));
#518=CARTESIAN_POINT('Origin',(155.,-42.2525680875823,0.));
#519=CARTESIAN_POINT('',(155.,-31.175,10.));
#520=CARTESIAN_POINT('',(155.,-31.175,0.));
#521=CARTESIAN_POINT('',(155.,-31.175,0.));
#522=CARTESIAN_POINT('',(155.,-42.2525680875823,10.));
#523=CARTESIAN_POINT('',(155.,-42.2525680875823,10.));
#524=CARTESIAN_POINT('',(155.,-42.2525680875823,0.));
#525=CARTESIAN_POINT('',(155.,-42.2525680875823,0.));
#526=CARTESIAN_POINT('',(155.,-42.2525680875823,0.));
#527=CARTESIAN_POINT('Origin',(170.,-42.2525680875823,10.));
#528=CARTESIAN_POINT('',(170.,-31.175,0.));
#529=CARTESIAN_POINT('',(170.,-31.175,10.));
#530=CARTESIAN_POINT('',(170.,-31.175,5.));
#531=CARTESIAN_POINT('',(170.,-42.2525680875823,0.));
#532=CARTESIAN_POINT('',(170.,-42.2525680875823,0.));
#533=CARTESIAN_POINT('',(170.,-42.2525680875823,10.));
#534=CARTESIAN_POINT('',(170.,-42.2525680875823,5.));
#535=CARTESIAN_POINT('',(170.,-42.2525680875823,10.));
#536=CARTESIAN_POINT('Origin',(155.,-42.2525680875823,10.));
#537=CARTESIAN_POINT('',(131.7125,-31.175,10.));
#538=CARTESIAN_POINT('',(137.247319267269,-42.2525680875823,10.));
#539=CARTESIAN_POINT('Origin',(119.494638534538,-42.2525680875823,0.));
#540=CARTESIAN_POINT('',(207.34928749609,-42.2525680875823,0.));
#541=CARTESIAN_POINT('',(141.459819267269,-42.2525680875823,0.));
#542=CARTESIAN_POINT('',(207.34928749609,-42.2525680875823,13.));
#543=CARTESIAN_POINT('',(207.34928749609,-42.2525680875823,0.));
#544=CARTESIAN_POINT('',(119.494638534538,-42.2525680875823,13.));
#545=CARTESIAN_POINT('',(108.425,-42.2525680875823,13.));
#546=CARTESIAN_POINT('',(119.494638534538,-42.2525680875823,0.));
#547=CARTESIAN_POINT('',(119.494638534538,-42.2525680875823,0.));
#548=CARTESIAN_POINT('',(141.459819267269,-42.2525680875823,0.));
#549=CARTESIAN_POINT('Origin',(119.494638534538,-130.107807958763,0.));
#550=CARTESIAN_POINT('',(119.494638534538,-130.107807958763,0.));
#551=CARTESIAN_POINT('',(119.494638534538,-108.141403979382,0.));
#552=CARTESIAN_POINT('',(119.494638534538,-130.107807958763,13.));
#553=CARTESIAN_POINT('',(119.494638534538,-31.175,13.));
#554=CARTESIAN_POINT('',(119.494638534538,-130.107807958763,0.));
#555=CARTESIAN_POINT('Origin',(207.34928749609,-130.107807958763,0.));
#556=CARTESIAN_POINT('',(207.34928749609,-130.107807958763,0.));
#557=CARTESIAN_POINT('',(185.387143748045,-130.107807958763,0.));
#558=CARTESIAN_POINT('',(207.34928749609,-130.107807958763,13.));
#559=CARTESIAN_POINT('',(218.425,-130.107807958763,13.));
#560=CARTESIAN_POINT('',(207.34928749609,-130.107807958763,0.));
#561=CARTESIAN_POINT('Origin',(207.34928749609,-42.2525680875823,0.));
#562=CARTESIAN_POINT('',(207.34928749609,-64.2137840437912,0.));
#563=CARTESIAN_POINT('',(207.34928749609,-141.175,13.));
#564=CARTESIAN_POINT('Origin',(163.425,-86.175,13.));
#565=CARTESIAN_POINT('',(218.425,-141.175,13.));
#566=CARTESIAN_POINT('',(218.425,-31.175,13.));
#567=CARTESIAN_POINT('',(218.425,-31.175,13.));
#568=CARTESIAN_POINT('',(108.425,-31.175,13.));
#569=CARTESIAN_POINT('',(218.425,-31.175,13.));
#570=CARTESIAN_POINT('',(108.425,-141.175,13.));
#571=CARTESIAN_POINT('',(108.425,-31.175,13.));
#572=CARTESIAN_POINT('',(108.425,-141.175,13.));
#573=CARTESIAN_POINT('Origin',(108.425,-141.175,0.));
#574=CARTESIAN_POINT('',(108.425,-31.175,-3.));
#575=CARTESIAN_POINT('',(108.425,-31.175,0.));
#576=CARTESIAN_POINT('',(108.425,-141.175,-3.));
#577=CARTESIAN_POINT('',(108.425,-31.175,-3.));
#578=CARTESIAN_POINT('',(108.425,-141.175,0.));
#579=CARTESIAN_POINT('Origin',(218.425,-141.175,0.));
#580=CARTESIAN_POINT('',(218.425,-141.175,-3.));
#581=CARTESIAN_POINT('',(108.425,-141.175,-3.));
#582=CARTESIAN_POINT('',(218.425,-141.175,0.));
#583=CARTESIAN_POINT('Origin',(218.425,-31.175,0.));
#584=CARTESIAN_POINT('',(218.425,-31.175,-3.));
#585=CARTESIAN_POINT('',(218.425,-141.175,-3.));
#586=CARTESIAN_POINT('',(218.425,-31.175,0.));
#587=CARTESIAN_POINT('Origin',(108.425,-31.175,0.));
#588=CARTESIAN_POINT('',(218.425,-31.175,-3.));
#589=CARTESIAN_POINT('',(139.2125,-31.175,0.));
#590=CARTESIAN_POINT('Origin',(163.425,-86.175,-3.));
#591=CARTESIAN_POINT('Origin',(163.425,-86.175,0.));
#592=UNCERTAINTY_MEASURE_WITH_UNIT(LENGTH_MEASURE(0.01),#596,
'DISTANCE_ACCURACY_VALUE',
'Maximum model space distance between geometric entities at asserted c
onnectivities');
#593=UNCERTAINTY_MEASURE_WITH_UNIT(LENGTH_MEASURE(0.01),#596,
'DISTANCE_ACCURACY_VALUE',
'Maximum model space distance between geometric entities at asserted c
onnectivities');
#594=(
GEOMETRIC_REPRESENTATION_CONTEXT(3)
GLOBAL_UNCERTAINTY_ASSIGNED_CONTEXT((#592))
GLOBAL_UNIT_ASSIGNED_CONTEXT((#596,#597,#598))
REPRESENTATION_CONTEXT('','3D')
);
#595=(
GEOMETRIC_REPRESENTATION_CONTEXT(3)
GLOBAL_UNCERTAINTY_ASSIGNED_CONTEXT((#593))
GLOBAL_UNIT_ASSIGNED_CONTEXT((#596,#597,#598))
REPRESENTATION_CONTEXT('','3D')
);
#596=(
LENGTH_UNIT()
NAMED_UNIT(*)
SI_UNIT(.MILLI.,.METRE.)
);
#597=(
NAMED_UNIT(*)
PLANE_ANGLE_UNIT()
SI_UNIT($,.RADIAN.)
);
#598=(
NAMED_UNIT(*)
SI_UNIT($,.STERADIAN.)
SOLID_ANGLE_UNIT()
);
#599=SHAPE_DEFINITION_REPRESENTATION(#600,#601);
#600=PRODUCT_DEFINITION_SHAPE('',$,#603);
#601=SHAPE_REPRESENTATION('',(#372),#594);
#602=PRODUCT_DEFINITION_CONTEXT('part definition',#607,'design');
#603=PRODUCT_DEFINITION('2026-08-14-00-18-14-912','HackPadfinaltryFRFR',
#604,#602);
#604=PRODUCT_DEFINITION_FORMATION('',$,#609);
#605=PRODUCT_RELATED_PRODUCT_CATEGORY('HackPadfinaltryFRFR',
'HackPadfinaltryFRFR',(#609));
#606=APPLICATION_PROTOCOL_DEFINITION('international standard',
'automotive_design',2009,#607);
#607=APPLICATION_CONTEXT(
'Core Data for Automotive Mechanical Design Process');
#608=PRODUCT_CONTEXT('part definition',#607,'mechanical');
#609=PRODUCT('2026-08-14-00-18-14-912','HackPadfinaltryFRFR',$,(#608));
#610=PRESENTATION_STYLE_ASSIGNMENT((#613));
#611=PRESENTATION_STYLE_ASSIGNMENT((#614));
#612=PRESENTATION_STYLE_ASSIGNMENT((#615));
#613=SURFACE_STYLE_USAGE(.BOTH.,#616);
#614=SURFACE_STYLE_USAGE(.BOTH.,#617);
#615=SURFACE_STYLE_USAGE(.BOTH.,#618);
#616=SURFACE_SIDE_STYLE('',(#619));
#617=SURFACE_SIDE_STYLE('',(#620));
#618=SURFACE_SIDE_STYLE('',(#621));
#619=SURFACE_STYLE_FILL_AREA(#622);
#620=SURFACE_STYLE_FILL_AREA(#623);
#621=SURFACE_STYLE_FILL_AREA(#624);
#622=FILL_AREA_STYLE('Steel - Satin',(#625));
#623=FILL_AREA_STYLE('PEEK',(#626));
#624=FILL_AREA_STYLE('Plastic - Translucent Glossy (Green)',(#627));
#625=FILL_AREA_STYLE_COLOUR('Steel - Satin',#628);
#626=FILL_AREA_STYLE_COLOUR('PEEK',#629);
#627=FILL_AREA_STYLE_COLOUR('Plastic - Translucent Glossy (Green)',#630);
#628=COLOUR_RGB('Steel - Satin',0.627450980392157,0.627450980392157,0.627450980392157);
#629=COLOUR_RGB('PEEK',0.6,0.509803921568627,0.368627450980392);
#630=COLOUR_RGB('Plastic - Translucent Glossy (Green)',0.266666666666667,
0.588235294117647,0.282352941176471);
ENDSEC;
END-ISO-10303-21;
