ISO-10303-21;
HEADER;
/* Generated by software containing ST-Developer
 * from STEP Tools, Inc. (www.steptools.com) 
 */

FILE_DESCRIPTION(
/* description */ ('KiCad electronic assembly'),
/* implementation_level */ '2;1');

FILE_NAME(
/* name */ 'Top.step',
/* time_stamp */ '2026-07-23T14:01:05-04:00',
/* author */ (''),
/* organization */ (''),
/* preprocessor_version */ 'ST-DEVELOPER v20.1',
/* originating_system */ 'Autodesk Translation Framework v15.8.0.0',
/* authorisation */ '');

FILE_SCHEMA (('AUTOMOTIVE_DESIGN { 1 0 10303 214 3 1 1 }'));
ENDSEC;

DATA;
#10=MECHANICAL_DESIGN_GEOMETRIC_PRESENTATION_REPRESENTATION('',(#13),#1155);
#11=SHAPE_REPRESENTATION_RELATIONSHIP('SRR','None',#1161,#12);
#12=ADVANCED_BREP_SHAPE_REPRESENTATION('',(#14),#1154);
#13=STYLED_ITEM('',(#1172),#14);
#14=MANIFOLD_SOLID_BREP('Body4',#691);
#15=FACE_BOUND('',#114,.T.);
#16=FACE_BOUND('',#115,.T.);
#17=FACE_BOUND('',#116,.T.);
#18=FACE_BOUND('',#117,.T.);
#19=FACE_BOUND('',#118,.T.);
#20=FACE_BOUND('',#119,.T.);
#21=FACE_BOUND('',#120,.T.);
#22=FACE_BOUND('',#122,.T.);
#23=FACE_BOUND('',#123,.T.);
#24=FACE_BOUND('',#124,.T.);
#25=FACE_BOUND('',#125,.T.);
#26=FACE_BOUND('',#126,.T.);
#27=FACE_BOUND('',#127,.T.);
#28=FACE_BOUND('',#128,.T.);
#29=PLANE('',#705);
#30=PLANE('',#706);
#31=PLANE('',#707);
#32=PLANE('',#708);
#33=PLANE('',#709);
#34=PLANE('',#713);
#35=PLANE('',#717);
#36=PLANE('',#721);
#37=PLANE('',#725);
#38=PLANE('',#729);
#39=PLANE('',#733);
#40=PLANE('',#737);
#41=PLANE('',#741);
#42=PLANE('',#745);
#43=PLANE('',#749);
#44=PLANE('',#753);
#45=PLANE('',#757);
#46=PLANE('',#758);
#47=FACE_OUTER_BOUND('',#81,.T.);
#48=FACE_OUTER_BOUND('',#82,.T.);
#49=FACE_OUTER_BOUND('',#83,.T.);
#50=FACE_OUTER_BOUND('',#84,.T.);
#51=FACE_OUTER_BOUND('',#85,.T.);
#52=FACE_OUTER_BOUND('',#86,.T.);
#53=FACE_OUTER_BOUND('',#87,.T.);
#54=FACE_OUTER_BOUND('',#88,.T.);
#55=FACE_OUTER_BOUND('',#89,.T.);
#56=FACE_OUTER_BOUND('',#90,.T.);
#57=FACE_OUTER_BOUND('',#91,.T.);
#58=FACE_OUTER_BOUND('',#92,.T.);
#59=FACE_OUTER_BOUND('',#93,.T.);
#60=FACE_OUTER_BOUND('',#94,.T.);
#61=FACE_OUTER_BOUND('',#95,.T.);
#62=FACE_OUTER_BOUND('',#96,.T.);
#63=FACE_OUTER_BOUND('',#97,.T.);
#64=FACE_OUTER_BOUND('',#98,.T.);
#65=FACE_OUTER_BOUND('',#99,.T.);
#66=FACE_OUTER_BOUND('',#100,.T.);
#67=FACE_OUTER_BOUND('',#101,.T.);
#68=FACE_OUTER_BOUND('',#102,.T.);
#69=FACE_OUTER_BOUND('',#103,.T.);
#70=FACE_OUTER_BOUND('',#104,.T.);
#71=FACE_OUTER_BOUND('',#105,.T.);
#72=FACE_OUTER_BOUND('',#106,.T.);
#73=FACE_OUTER_BOUND('',#107,.T.);
#74=FACE_OUTER_BOUND('',#108,.T.);
#75=FACE_OUTER_BOUND('',#109,.T.);
#76=FACE_OUTER_BOUND('',#110,.T.);
#77=FACE_OUTER_BOUND('',#111,.T.);
#78=FACE_OUTER_BOUND('',#112,.T.);
#79=FACE_OUTER_BOUND('',#113,.T.);
#80=FACE_OUTER_BOUND('',#121,.T.);
#81=EDGE_LOOP('',(#449,#450,#451,#452));
#82=EDGE_LOOP('',(#453,#454,#455,#456));
#83=EDGE_LOOP('',(#457,#458,#459,#460));
#84=EDGE_LOOP('',(#461,#462,#463,#464));
#85=EDGE_LOOP('',(#465,#466,#467,#468));
#86=EDGE_LOOP('',(#469,#470,#471,#472));
#87=EDGE_LOOP('',(#473,#474,#475,#476));
#88=EDGE_LOOP('',(#477,#478,#479,#480));
#89=EDGE_LOOP('',(#481,#482,#483,#484));
#90=EDGE_LOOP('',(#485,#486,#487,#488));
#91=EDGE_LOOP('',(#489,#490,#491,#492));
#92=EDGE_LOOP('',(#493,#494,#495,#496));
#93=EDGE_LOOP('',(#497,#498,#499,#500));
#94=EDGE_LOOP('',(#501,#502,#503,#504));
#95=EDGE_LOOP('',(#505,#506,#507,#508));
#96=EDGE_LOOP('',(#509,#510,#511,#512));
#97=EDGE_LOOP('',(#513,#514,#515,#516));
#98=EDGE_LOOP('',(#517,#518,#519,#520));
#99=EDGE_LOOP('',(#521,#522,#523,#524));
#100=EDGE_LOOP('',(#525,#526,#527,#528));
#101=EDGE_LOOP('',(#529,#530,#531,#532));
#102=EDGE_LOOP('',(#533,#534,#535,#536));
#103=EDGE_LOOP('',(#537,#538,#539,#540));
#104=EDGE_LOOP('',(#541,#542,#543,#544));
#105=EDGE_LOOP('',(#545,#546,#547,#548));
#106=EDGE_LOOP('',(#549,#550,#551,#552));
#107=EDGE_LOOP('',(#553,#554,#555,#556));
#108=EDGE_LOOP('',(#557,#558,#559,#560));
#109=EDGE_LOOP('',(#561,#562,#563,#564));
#110=EDGE_LOOP('',(#565,#566,#567,#568));
#111=EDGE_LOOP('',(#569,#570,#571,#572));
#112=EDGE_LOOP('',(#573,#574,#575,#576));
#113=EDGE_LOOP('',(#577,#578,#579,#580));
#114=EDGE_LOOP('',(#581));
#115=EDGE_LOOP('',(#582));
#116=EDGE_LOOP('',(#583));
#117=EDGE_LOOP('',(#584));
#118=EDGE_LOOP('',(#585,#586,#587,#588,#589,#590,#591,#592));
#119=EDGE_LOOP('',(#593,#594,#595,#596,#597,#598,#599,#600));
#120=EDGE_LOOP('',(#601,#602,#603,#604,#605,#606,#607,#608));
#121=EDGE_LOOP('',(#609,#610,#611,#612));
#122=EDGE_LOOP('',(#613));
#123=EDGE_LOOP('',(#614));
#124=EDGE_LOOP('',(#615));
#125=EDGE_LOOP('',(#616));
#126=EDGE_LOOP('',(#617,#618,#619,#620,#621,#622,#623,#624));
#127=EDGE_LOOP('',(#625,#626,#627,#628,#629,#630,#631,#632));
#128=EDGE_LOOP('',(#633,#634,#635,#636,#637,#638,#639,#640));
#129=LINE('',#962,#193);
#130=LINE('',#968,#194);
#131=LINE('',#974,#195);
#132=LINE('',#980,#196);
#133=LINE('',#985,#197);
#134=LINE('',#987,#198);
#135=LINE('',#989,#199);
#136=LINE('',#990,#200);
#137=LINE('',#993,#201);
#138=LINE('',#995,#202);
#139=LINE('',#996,#203);
#140=LINE('',#999,#204);
#141=LINE('',#1001,#205);
#142=LINE('',#1002,#206);
#143=LINE('',#1004,#207);
#144=LINE('',#1005,#208);
#145=LINE('',#1009,#209);
#146=LINE('',#1011,#210);
#147=LINE('',#1013,#211);
#148=LINE('',#1014,#212);
#149=LINE('',#1020,#213);
#150=LINE('',#1023,#214);
#151=LINE('',#1025,#215);
#152=LINE('',#1026,#216);
#153=LINE('',#1032,#217);
#154=LINE('',#1035,#218);
#155=LINE('',#1037,#219);
#156=LINE('',#1038,#220);
#157=LINE('',#1044,#221);
#158=LINE('',#1047,#222);
#159=LINE('',#1049,#223);
#160=LINE('',#1050,#224);
#161=LINE('',#1057,#225);
#162=LINE('',#1059,#226);
#163=LINE('',#1061,#227);
#164=LINE('',#1062,#228);
#165=LINE('',#1068,#229);
#166=LINE('',#1071,#230);
#167=LINE('',#1073,#231);
#168=LINE('',#1074,#232);
#169=LINE('',#1080,#233);
#170=LINE('',#1083,#234);
#171=LINE('',#1085,#235);
#172=LINE('',#1086,#236);
#173=LINE('',#1092,#237);
#174=LINE('',#1095,#238);
#175=LINE('',#1097,#239);
#176=LINE('',#1098,#240);
#177=LINE('',#1105,#241);
#178=LINE('',#1107,#242);
#179=LINE('',#1109,#243);
#180=LINE('',#1110,#244);
#181=LINE('',#1116,#245);
#182=LINE('',#1119,#246);
#183=LINE('',#1121,#247);
#184=LINE('',#1122,#248);
#185=LINE('',#1128,#249);
#186=LINE('',#1131,#250);
#187=LINE('',#1133,#251);
#188=LINE('',#1134,#252);
#189=LINE('',#1140,#253);
#190=LINE('',#1143,#254);
#191=LINE('',#1145,#255);
#192=LINE('',#1146,#256);
#193=VECTOR('',#765,1.5);
#194=VECTOR('',#772,1.5);
#195=VECTOR('',#779,1.5);
#196=VECTOR('',#786,1.5);
#197=VECTOR('',#791,10.);
#198=VECTOR('',#792,10.);
#199=VECTOR('',#793,10.);
#200=VECTOR('',#794,10.);
#201=VECTOR('',#797,10.);
#202=VECTOR('',#798,10.);
#203=VECTOR('',#799,10.);
#204=VECTOR('',#802,10.);
#205=VECTOR('',#803,10.);
#206=VECTOR('',#804,10.);
#207=VECTOR('',#807,10.);
#208=VECTOR('',#808,10.);
#209=VECTOR('',#811,10.);
#210=VECTOR('',#812,10.);
#211=VECTOR('',#813,10.);
#212=VECTOR('',#814,10.);
#213=VECTOR('',#821,10.);
#214=VECTOR('',#824,10.);
#215=VECTOR('',#825,10.);
#216=VECTOR('',#826,10.);
#217=VECTOR('',#833,10.);
#218=VECTOR('',#836,10.);
#219=VECTOR('',#837,10.);
#220=VECTOR('',#838,10.);
#221=VECTOR('',#845,10.);
#222=VECTOR('',#848,10.);
#223=VECTOR('',#849,10.);
#224=VECTOR('',#850,10.);
#225=VECTOR('',#859,10.);
#226=VECTOR('',#860,10.);
#227=VECTOR('',#861,10.);
#228=VECTOR('',#862,10.);
#229=VECTOR('',#869,10.);
#230=VECTOR('',#872,10.);
#231=VECTOR('',#873,10.);
#232=VECTOR('',#874,10.);
#233=VECTOR('',#881,10.);
#234=VECTOR('',#884,10.);
#235=VECTOR('',#885,10.);
#236=VECTOR('',#886,10.);
#237=VECTOR('',#893,10.);
#238=VECTOR('',#896,10.);
#239=VECTOR('',#897,10.);
#240=VECTOR('',#898,10.);
#241=VECTOR('',#907,10.);
#242=VECTOR('',#908,10.);
#243=VECTOR('',#909,10.);
#244=VECTOR('',#910,10.);
#245=VECTOR('',#917,10.);
#246=VECTOR('',#920,10.);
#247=VECTOR('',#921,10.);
#248=VECTOR('',#922,10.);
#249=VECTOR('',#929,10.);
#250=VECTOR('',#932,10.);
#251=VECTOR('',#933,10.);
#252=VECTOR('',#934,10.);
#253=VECTOR('',#941,10.);
#254=VECTOR('',#944,10.);
#255=VECTOR('',#945,10.);
#256=VECTOR('',#946,10.);
#257=CIRCLE('',#694,1.5);
#258=CIRCLE('',#695,1.5);
#259=CIRCLE('',#697,1.5);
#260=CIRCLE('',#698,1.5);
#261=CIRCLE('',#700,1.5);
#262=CIRCLE('',#701,1.5);
#263=CIRCLE('',#703,1.5);
#264=CIRCLE('',#704,1.5);
#265=CIRCLE('',#711,0.500000000000007);
#266=CIRCLE('',#712,0.500000000000007);
#267=CIRCLE('',#715,0.499999999999998);
#268=CIRCLE('',#716,0.499999999999998);
#269=CIRCLE('',#719,0.499999999999994);
#270=CIRCLE('',#720,0.499999999999994);
#271=CIRCLE('',#723,0.499999999999998);
#272=CIRCLE('',#724,0.499999999999998);
#273=CIRCLE('',#727,0.499999999999996);
#274=CIRCLE('',#728,0.499999999999996);
#275=CIRCLE('',#731,0.499999999999998);
#276=CIRCLE('',#732,0.499999999999998);
#277=CIRCLE('',#735,0.499999999999996);
#278=CIRCLE('',#736,0.499999999999996);
#279=CIRCLE('',#739,0.499999999999998);
#280=CIRCLE('',#740,0.499999999999998);
#281=CIRCLE('',#743,0.499999999999994);
#282=CIRCLE('',#744,0.499999999999994);
#283=CIRCLE('',#747,0.499999999999998);
#284=CIRCLE('',#748,0.499999999999998);
#285=CIRCLE('',#751,0.499999999999994);
#286=CIRCLE('',#752,0.499999999999994);
#287=CIRCLE('',#755,0.499999999999998);
#288=CIRCLE('',#756,0.499999999999998);
#289=VERTEX_POINT('',#959);
#290=VERTEX_POINT('',#961);
#291=VERTEX_POINT('',#965);
#292=VERTEX_POINT('',#967);
#293=VERTEX_POINT('',#971);
#294=VERTEX_POINT('',#973);
#295=VERTEX_POINT('',#977);
#296=VERTEX_POINT('',#979);
#297=VERTEX_POINT('',#983);
#298=VERTEX_POINT('',#984);
#299=VERTEX_POINT('',#986);
#300=VERTEX_POINT('',#988);
#301=VERTEX_POINT('',#992);
#302=VERTEX_POINT('',#994);
#303=VERTEX_POINT('',#998);
#304=VERTEX_POINT('',#1000);
#305=VERTEX_POINT('',#1007);
#306=VERTEX_POINT('',#1008);
#307=VERTEX_POINT('',#1010);
#308=VERTEX_POINT('',#1012);
#309=VERTEX_POINT('',#1016);
#310=VERTEX_POINT('',#1018);
#311=VERTEX_POINT('',#1022);
#312=VERTEX_POINT('',#1024);
#313=VERTEX_POINT('',#1028);
#314=VERTEX_POINT('',#1030);
#315=VERTEX_POINT('',#1034);
#316=VERTEX_POINT('',#1036);
#317=VERTEX_POINT('',#1040);
#318=VERTEX_POINT('',#1042);
#319=VERTEX_POINT('',#1046);
#320=VERTEX_POINT('',#1048);
#321=VERTEX_POINT('',#1055);
#322=VERTEX_POINT('',#1056);
#323=VERTEX_POINT('',#1058);
#324=VERTEX_POINT('',#1060);
#325=VERTEX_POINT('',#1064);
#326=VERTEX_POINT('',#1066);
#327=VERTEX_POINT('',#1070);
#328=VERTEX_POINT('',#1072);
#329=VERTEX_POINT('',#1076);
#330=VERTEX_POINT('',#1078);
#331=VERTEX_POINT('',#1082);
#332=VERTEX_POINT('',#1084);
#333=VERTEX_POINT('',#1088);
#334=VERTEX_POINT('',#1090);
#335=VERTEX_POINT('',#1094);
#336=VERTEX_POINT('',#1096);
#337=VERTEX_POINT('',#1103);
#338=VERTEX_POINT('',#1104);
#339=VERTEX_POINT('',#1106);
#340=VERTEX_POINT('',#1108);
#341=VERTEX_POINT('',#1112);
#342=VERTEX_POINT('',#1114);
#343=VERTEX_POINT('',#1118);
#344=VERTEX_POINT('',#1120);
#345=VERTEX_POINT('',#1124);
#346=VERTEX_POINT('',#1126);
#347=VERTEX_POINT('',#1130);
#348=VERTEX_POINT('',#1132);
#349=VERTEX_POINT('',#1136);
#350=VERTEX_POINT('',#1138);
#351=VERTEX_POINT('',#1142);
#352=VERTEX_POINT('',#1144);
#353=EDGE_CURVE('',#289,#289,#257,.T.);
#354=EDGE_CURVE('',#289,#290,#129,.T.);
#355=EDGE_CURVE('',#290,#290,#258,.T.);
#356=EDGE_CURVE('',#291,#291,#259,.T.);
#357=EDGE_CURVE('',#291,#292,#130,.T.);
#358=EDGE_CURVE('',#292,#292,#260,.T.);
#359=EDGE_CURVE('',#293,#293,#261,.T.);
#360=EDGE_CURVE('',#293,#294,#131,.T.);
#361=EDGE_CURVE('',#294,#294,#262,.T.);
#362=EDGE_CURVE('',#295,#295,#263,.T.);
#363=EDGE_CURVE('',#295,#296,#132,.T.);
#364=EDGE_CURVE('',#296,#296,#264,.T.);
#365=EDGE_CURVE('',#297,#298,#133,.T.);
#366=EDGE_CURVE('',#298,#299,#134,.T.);
#367=EDGE_CURVE('',#300,#299,#135,.T.);
#368=EDGE_CURVE('',#297,#300,#136,.T.);
#369=EDGE_CURVE('',#301,#297,#137,.T.);
#370=EDGE_CURVE('',#302,#300,#138,.T.);
#371=EDGE_CURVE('',#301,#302,#139,.T.);
#372=EDGE_CURVE('',#303,#301,#140,.T.);
#373=EDGE_CURVE('',#304,#302,#141,.T.);
#374=EDGE_CURVE('',#303,#304,#142,.T.);
#375=EDGE_CURVE('',#298,#303,#143,.T.);
#376=EDGE_CURVE('',#299,#304,#144,.T.);
#377=EDGE_CURVE('',#305,#306,#145,.T.);
#378=EDGE_CURVE('',#306,#307,#146,.T.);
#379=EDGE_CURVE('',#308,#307,#147,.T.);
#380=EDGE_CURVE('',#305,#308,#148,.T.);
#381=EDGE_CURVE('',#309,#305,#265,.T.);
#382=EDGE_CURVE('',#310,#308,#266,.T.);
#383=EDGE_CURVE('',#309,#310,#149,.T.);
#384=EDGE_CURVE('',#311,#309,#150,.T.);
#385=EDGE_CURVE('',#312,#310,#151,.T.);
#386=EDGE_CURVE('',#311,#312,#152,.T.);
#387=EDGE_CURVE('',#313,#311,#267,.T.);
#388=EDGE_CURVE('',#314,#312,#268,.T.);
#389=EDGE_CURVE('',#313,#314,#153,.T.);
#390=EDGE_CURVE('',#315,#313,#154,.T.);
#391=EDGE_CURVE('',#316,#314,#155,.T.);
#392=EDGE_CURVE('',#315,#316,#156,.T.);
#393=EDGE_CURVE('',#317,#315,#269,.T.);
#394=EDGE_CURVE('',#318,#316,#270,.T.);
#395=EDGE_CURVE('',#317,#318,#157,.T.);
#396=EDGE_CURVE('',#319,#317,#158,.T.);
#397=EDGE_CURVE('',#320,#318,#159,.T.);
#398=EDGE_CURVE('',#319,#320,#160,.T.);
#399=EDGE_CURVE('',#306,#319,#271,.T.);
#400=EDGE_CURVE('',#307,#320,#272,.T.);
#401=EDGE_CURVE('',#321,#322,#161,.T.);
#402=EDGE_CURVE('',#322,#323,#162,.T.);
#403=EDGE_CURVE('',#324,#323,#163,.T.);
#404=EDGE_CURVE('',#321,#324,#164,.T.);
#405=EDGE_CURVE('',#325,#321,#273,.T.);
#406=EDGE_CURVE('',#326,#324,#274,.T.);
#407=EDGE_CURVE('',#325,#326,#165,.T.);
#408=EDGE_CURVE('',#327,#325,#166,.T.);
#409=EDGE_CURVE('',#328,#326,#167,.T.);
#410=EDGE_CURVE('',#327,#328,#168,.T.);
#411=EDGE_CURVE('',#329,#327,#275,.T.);
#412=EDGE_CURVE('',#330,#328,#276,.T.);
#413=EDGE_CURVE('',#329,#330,#169,.T.);
#414=EDGE_CURVE('',#331,#329,#170,.T.);
#415=EDGE_CURVE('',#332,#330,#171,.T.);
#416=EDGE_CURVE('',#331,#332,#172,.T.);
#417=EDGE_CURVE('',#333,#331,#277,.T.);
#418=EDGE_CURVE('',#334,#332,#278,.T.);
#419=EDGE_CURVE('',#333,#334,#173,.T.);
#420=EDGE_CURVE('',#335,#333,#174,.T.);
#421=EDGE_CURVE('',#336,#334,#175,.T.);
#422=EDGE_CURVE('',#335,#336,#176,.T.);
#423=EDGE_CURVE('',#322,#335,#279,.T.);
#424=EDGE_CURVE('',#323,#336,#280,.T.);
#425=EDGE_CURVE('',#337,#338,#177,.T.);
#426=EDGE_CURVE('',#338,#339,#178,.T.);
#427=EDGE_CURVE('',#340,#339,#179,.T.);
#428=EDGE_CURVE('',#337,#340,#180,.T.);
#429=EDGE_CURVE('',#341,#337,#281,.T.);
#430=EDGE_CURVE('',#342,#340,#282,.T.);
#431=EDGE_CURVE('',#341,#342,#181,.T.);
#432=EDGE_CURVE('',#343,#341,#182,.T.);
#433=EDGE_CURVE('',#344,#342,#183,.T.);
#434=EDGE_CURVE('',#343,#344,#184,.T.);
#435=EDGE_CURVE('',#345,#343,#283,.T.);
#436=EDGE_CURVE('',#346,#344,#284,.T.);
#437=EDGE_CURVE('',#345,#346,#185,.T.);
#438=EDGE_CURVE('',#347,#345,#186,.T.);
#439=EDGE_CURVE('',#348,#346,#187,.T.);
#440=EDGE_CURVE('',#347,#348,#188,.T.);
#441=EDGE_CURVE('',#349,#347,#285,.T.);
#442=EDGE_CURVE('',#350,#348,#286,.T.);
#443=EDGE_CURVE('',#349,#350,#189,.T.);
#444=EDGE_CURVE('',#351,#349,#190,.T.);
#445=EDGE_CURVE('',#352,#350,#191,.T.);
#446=EDGE_CURVE('',#351,#352,#192,.T.);
#447=EDGE_CURVE('',#338,#351,#287,.T.);
#448=EDGE_CURVE('',#339,#352,#288,.T.);
#449=ORIENTED_EDGE('',*,*,#353,.F.);
#450=ORIENTED_EDGE('',*,*,#354,.T.);
#451=ORIENTED_EDGE('',*,*,#355,.T.);
#452=ORIENTED_EDGE('',*,*,#354,.F.);
#453=ORIENTED_EDGE('',*,*,#356,.F.);
#454=ORIENTED_EDGE('',*,*,#357,.T.);
#455=ORIENTED_EDGE('',*,*,#358,.T.);
#456=ORIENTED_EDGE('',*,*,#357,.F.);
#457=ORIENTED_EDGE('',*,*,#359,.F.);
#458=ORIENTED_EDGE('',*,*,#360,.T.);
#459=ORIENTED_EDGE('',*,*,#361,.T.);
#460=ORIENTED_EDGE('',*,*,#360,.F.);
#461=ORIENTED_EDGE('',*,*,#362,.F.);
#462=ORIENTED_EDGE('',*,*,#363,.T.);
#463=ORIENTED_EDGE('',*,*,#364,.T.);
#464=ORIENTED_EDGE('',*,*,#363,.F.);
#465=ORIENTED_EDGE('',*,*,#365,.T.);
#466=ORIENTED_EDGE('',*,*,#366,.T.);
#467=ORIENTED_EDGE('',*,*,#367,.F.);
#468=ORIENTED_EDGE('',*,*,#368,.F.);
#469=ORIENTED_EDGE('',*,*,#369,.T.);
#470=ORIENTED_EDGE('',*,*,#368,.T.);
#471=ORIENTED_EDGE('',*,*,#370,.F.);
#472=ORIENTED_EDGE('',*,*,#371,.F.);
#473=ORIENTED_EDGE('',*,*,#372,.T.);
#474=ORIENTED_EDGE('',*,*,#371,.T.);
#475=ORIENTED_EDGE('',*,*,#373,.F.);
#476=ORIENTED_EDGE('',*,*,#374,.F.);
#477=ORIENTED_EDGE('',*,*,#375,.T.);
#478=ORIENTED_EDGE('',*,*,#374,.T.);
#479=ORIENTED_EDGE('',*,*,#376,.F.);
#480=ORIENTED_EDGE('',*,*,#366,.F.);
#481=ORIENTED_EDGE('',*,*,#377,.T.);
#482=ORIENTED_EDGE('',*,*,#378,.T.);
#483=ORIENTED_EDGE('',*,*,#379,.F.);
#484=ORIENTED_EDGE('',*,*,#380,.F.);
#485=ORIENTED_EDGE('',*,*,#381,.T.);
#486=ORIENTED_EDGE('',*,*,#380,.T.);
#487=ORIENTED_EDGE('',*,*,#382,.F.);
#488=ORIENTED_EDGE('',*,*,#383,.F.);
#489=ORIENTED_EDGE('',*,*,#384,.T.);
#490=ORIENTED_EDGE('',*,*,#383,.T.);
#491=ORIENTED_EDGE('',*,*,#385,.F.);
#492=ORIENTED_EDGE('',*,*,#386,.F.);
#493=ORIENTED_EDGE('',*,*,#387,.T.);
#494=ORIENTED_EDGE('',*,*,#386,.T.);
#495=ORIENTED_EDGE('',*,*,#388,.F.);
#496=ORIENTED_EDGE('',*,*,#389,.F.);
#497=ORIENTED_EDGE('',*,*,#390,.T.);
#498=ORIENTED_EDGE('',*,*,#389,.T.);
#499=ORIENTED_EDGE('',*,*,#391,.F.);
#500=ORIENTED_EDGE('',*,*,#392,.F.);
#501=ORIENTED_EDGE('',*,*,#393,.T.);
#502=ORIENTED_EDGE('',*,*,#392,.T.);
#503=ORIENTED_EDGE('',*,*,#394,.F.);
#504=ORIENTED_EDGE('',*,*,#395,.F.);
#505=ORIENTED_EDGE('',*,*,#396,.T.);
#506=ORIENTED_EDGE('',*,*,#395,.T.);
#507=ORIENTED_EDGE('',*,*,#397,.F.);
#508=ORIENTED_EDGE('',*,*,#398,.F.);
#509=ORIENTED_EDGE('',*,*,#399,.T.);
#510=ORIENTED_EDGE('',*,*,#398,.T.);
#511=ORIENTED_EDGE('',*,*,#400,.F.);
#512=ORIENTED_EDGE('',*,*,#378,.F.);
#513=ORIENTED_EDGE('',*,*,#401,.T.);
#514=ORIENTED_EDGE('',*,*,#402,.T.);
#515=ORIENTED_EDGE('',*,*,#403,.F.);
#516=ORIENTED_EDGE('',*,*,#404,.F.);
#517=ORIENTED_EDGE('',*,*,#405,.T.);
#518=ORIENTED_EDGE('',*,*,#404,.T.);
#519=ORIENTED_EDGE('',*,*,#406,.F.);
#520=ORIENTED_EDGE('',*,*,#407,.F.);
#521=ORIENTED_EDGE('',*,*,#408,.T.);
#522=ORIENTED_EDGE('',*,*,#407,.T.);
#523=ORIENTED_EDGE('',*,*,#409,.F.);
#524=ORIENTED_EDGE('',*,*,#410,.F.);
#525=ORIENTED_EDGE('',*,*,#411,.T.);
#526=ORIENTED_EDGE('',*,*,#410,.T.);
#527=ORIENTED_EDGE('',*,*,#412,.F.);
#528=ORIENTED_EDGE('',*,*,#413,.F.);
#529=ORIENTED_EDGE('',*,*,#414,.T.);
#530=ORIENTED_EDGE('',*,*,#413,.T.);
#531=ORIENTED_EDGE('',*,*,#415,.F.);
#532=ORIENTED_EDGE('',*,*,#416,.F.);
#533=ORIENTED_EDGE('',*,*,#417,.T.);
#534=ORIENTED_EDGE('',*,*,#416,.T.);
#535=ORIENTED_EDGE('',*,*,#418,.F.);
#536=ORIENTED_EDGE('',*,*,#419,.F.);
#537=ORIENTED_EDGE('',*,*,#420,.T.);
#538=ORIENTED_EDGE('',*,*,#419,.T.);
#539=ORIENTED_EDGE('',*,*,#421,.F.);
#540=ORIENTED_EDGE('',*,*,#422,.F.);
#541=ORIENTED_EDGE('',*,*,#423,.T.);
#542=ORIENTED_EDGE('',*,*,#422,.T.);
#543=ORIENTED_EDGE('',*,*,#424,.F.);
#544=ORIENTED_EDGE('',*,*,#402,.F.);
#545=ORIENTED_EDGE('',*,*,#425,.T.);
#546=ORIENTED_EDGE('',*,*,#426,.T.);
#547=ORIENTED_EDGE('',*,*,#427,.F.);
#548=ORIENTED_EDGE('',*,*,#428,.F.);
#549=ORIENTED_EDGE('',*,*,#429,.T.);
#550=ORIENTED_EDGE('',*,*,#428,.T.);
#551=ORIENTED_EDGE('',*,*,#430,.F.);
#552=ORIENTED_EDGE('',*,*,#431,.F.);
#553=ORIENTED_EDGE('',*,*,#432,.T.);
#554=ORIENTED_EDGE('',*,*,#431,.T.);
#555=ORIENTED_EDGE('',*,*,#433,.F.);
#556=ORIENTED_EDGE('',*,*,#434,.F.);
#557=ORIENTED_EDGE('',*,*,#435,.T.);
#558=ORIENTED_EDGE('',*,*,#434,.T.);
#559=ORIENTED_EDGE('',*,*,#436,.F.);
#560=ORIENTED_EDGE('',*,*,#437,.F.);
#561=ORIENTED_EDGE('',*,*,#438,.T.);
#562=ORIENTED_EDGE('',*,*,#437,.T.);
#563=ORIENTED_EDGE('',*,*,#439,.F.);
#564=ORIENTED_EDGE('',*,*,#440,.F.);
#565=ORIENTED_EDGE('',*,*,#441,.T.);
#566=ORIENTED_EDGE('',*,*,#440,.T.);
#567=ORIENTED_EDGE('',*,*,#442,.F.);
#568=ORIENTED_EDGE('',*,*,#443,.F.);
#569=ORIENTED_EDGE('',*,*,#444,.T.);
#570=ORIENTED_EDGE('',*,*,#443,.T.);
#571=ORIENTED_EDGE('',*,*,#445,.F.);
#572=ORIENTED_EDGE('',*,*,#446,.F.);
#573=ORIENTED_EDGE('',*,*,#447,.T.);
#574=ORIENTED_EDGE('',*,*,#446,.T.);
#575=ORIENTED_EDGE('',*,*,#448,.F.);
#576=ORIENTED_EDGE('',*,*,#426,.F.);
#577=ORIENTED_EDGE('',*,*,#376,.T.);
#578=ORIENTED_EDGE('',*,*,#373,.T.);
#579=ORIENTED_EDGE('',*,*,#370,.T.);
#580=ORIENTED_EDGE('',*,*,#367,.T.);
#581=ORIENTED_EDGE('',*,*,#353,.T.);
#582=ORIENTED_EDGE('',*,*,#356,.T.);
#583=ORIENTED_EDGE('',*,*,#359,.T.);
#584=ORIENTED_EDGE('',*,*,#362,.T.);
#585=ORIENTED_EDGE('',*,*,#448,.T.);
#586=ORIENTED_EDGE('',*,*,#445,.T.);
#587=ORIENTED_EDGE('',*,*,#442,.T.);
#588=ORIENTED_EDGE('',*,*,#439,.T.);
#589=ORIENTED_EDGE('',*,*,#436,.T.);
#590=ORIENTED_EDGE('',*,*,#433,.T.);
#591=ORIENTED_EDGE('',*,*,#430,.T.);
#592=ORIENTED_EDGE('',*,*,#427,.T.);
#593=ORIENTED_EDGE('',*,*,#424,.T.);
#594=ORIENTED_EDGE('',*,*,#421,.T.);
#595=ORIENTED_EDGE('',*,*,#418,.T.);
#596=ORIENTED_EDGE('',*,*,#415,.T.);
#597=ORIENTED_EDGE('',*,*,#412,.T.);
#598=ORIENTED_EDGE('',*,*,#409,.T.);
#599=ORIENTED_EDGE('',*,*,#406,.T.);
#600=ORIENTED_EDGE('',*,*,#403,.T.);
#601=ORIENTED_EDGE('',*,*,#400,.T.);
#602=ORIENTED_EDGE('',*,*,#397,.T.);
#603=ORIENTED_EDGE('',*,*,#394,.T.);
#604=ORIENTED_EDGE('',*,*,#391,.T.);
#605=ORIENTED_EDGE('',*,*,#388,.T.);
#606=ORIENTED_EDGE('',*,*,#385,.T.);
#607=ORIENTED_EDGE('',*,*,#382,.T.);
#608=ORIENTED_EDGE('',*,*,#379,.T.);
#609=ORIENTED_EDGE('',*,*,#375,.F.);
#610=ORIENTED_EDGE('',*,*,#365,.F.);
#611=ORIENTED_EDGE('',*,*,#369,.F.);
#612=ORIENTED_EDGE('',*,*,#372,.F.);
#613=ORIENTED_EDGE('',*,*,#355,.F.);
#614=ORIENTED_EDGE('',*,*,#358,.F.);
#615=ORIENTED_EDGE('',*,*,#361,.F.);
#616=ORIENTED_EDGE('',*,*,#364,.F.);
#617=ORIENTED_EDGE('',*,*,#447,.F.);
#618=ORIENTED_EDGE('',*,*,#425,.F.);
#619=ORIENTED_EDGE('',*,*,#429,.F.);
#620=ORIENTED_EDGE('',*,*,#432,.F.);
#621=ORIENTED_EDGE('',*,*,#435,.F.);
#622=ORIENTED_EDGE('',*,*,#438,.F.);
#623=ORIENTED_EDGE('',*,*,#441,.F.);
#624=ORIENTED_EDGE('',*,*,#444,.F.);
#625=ORIENTED_EDGE('',*,*,#423,.F.);
#626=ORIENTED_EDGE('',*,*,#401,.F.);
#627=ORIENTED_EDGE('',*,*,#405,.F.);
#628=ORIENTED_EDGE('',*,*,#408,.F.);
#629=ORIENTED_EDGE('',*,*,#411,.F.);
#630=ORIENTED_EDGE('',*,*,#414,.F.);
#631=ORIENTED_EDGE('',*,*,#417,.F.);
#632=ORIENTED_EDGE('',*,*,#420,.F.);
#633=ORIENTED_EDGE('',*,*,#399,.F.);
#634=ORIENTED_EDGE('',*,*,#377,.F.);
#635=ORIENTED_EDGE('',*,*,#381,.F.);
#636=ORIENTED_EDGE('',*,*,#384,.F.);
#637=ORIENTED_EDGE('',*,*,#387,.F.);
#638=ORIENTED_EDGE('',*,*,#390,.F.);
#639=ORIENTED_EDGE('',*,*,#393,.F.);
#640=ORIENTED_EDGE('',*,*,#396,.F.);
#641=CYLINDRICAL_SURFACE('',#693,1.5);
#642=CYLINDRICAL_SURFACE('',#696,1.5);
#643=CYLINDRICAL_SURFACE('',#699,1.5);
#644=CYLINDRICAL_SURFACE('',#702,1.5);
#645=CYLINDRICAL_SURFACE('',#710,0.500000000000007);
#646=CYLINDRICAL_SURFACE('',#714,0.499999999999998);
#647=CYLINDRICAL_SURFACE('',#718,0.499999999999994);
#648=CYLINDRICAL_SURFACE('',#722,0.499999999999998);
#649=CYLINDRICAL_SURFACE('',#726,0.499999999999996);
#650=CYLINDRICAL_SURFACE('',#730,0.499999999999998);
#651=CYLINDRICAL_SURFACE('',#734,0.499999999999996);
#652=CYLINDRICAL_SURFACE('',#738,0.499999999999998);
#653=CYLINDRICAL_SURFACE('',#742,0.499999999999994);
#654=CYLINDRICAL_SURFACE('',#746,0.499999999999998);
#655=CYLINDRICAL_SURFACE('',#750,0.499999999999994);
#656=CYLINDRICAL_SURFACE('',#754,0.499999999999998);
#657=ADVANCED_FACE('',(#47),#641,.F.);
#658=ADVANCED_FACE('',(#48),#642,.F.);
#659=ADVANCED_FACE('',(#49),#643,.F.);
#660=ADVANCED_FACE('',(#50),#644,.F.);
#661=ADVANCED_FACE('',(#51),#29,.T.);
#662=ADVANCED_FACE('',(#52),#30,.T.);
#663=ADVANCED_FACE('',(#53),#31,.T.);
#664=ADVANCED_FACE('',(#54),#32,.T.);
#665=ADVANCED_FACE('',(#55),#33,.T.);
#666=ADVANCED_FACE('',(#56),#645,.F.);
#667=ADVANCED_FACE('',(#57),#34,.T.);
#668=ADVANCED_FACE('',(#58),#646,.F.);
#669=ADVANCED_FACE('',(#59),#35,.T.);
#670=ADVANCED_FACE('',(#60),#647,.F.);
#671=ADVANCED_FACE('',(#61),#36,.T.);
#672=ADVANCED_FACE('',(#62),#648,.F.);
#673=ADVANCED_FACE('',(#63),#37,.T.);
#674=ADVANCED_FACE('',(#64),#649,.F.);
#675=ADVANCED_FACE('',(#65),#38,.T.);
#676=ADVANCED_FACE('',(#66),#650,.F.);
#677=ADVANCED_FACE('',(#67),#39,.T.);
#678=ADVANCED_FACE('',(#68),#651,.F.);
#679=ADVANCED_FACE('',(#69),#40,.T.);
#680=ADVANCED_FACE('',(#70),#652,.F.);
#681=ADVANCED_FACE('',(#71),#41,.T.);
#682=ADVANCED_FACE('',(#72),#653,.F.);
#683=ADVANCED_FACE('',(#73),#42,.T.);
#684=ADVANCED_FACE('',(#74),#654,.F.);
#685=ADVANCED_FACE('',(#75),#43,.T.);
#686=ADVANCED_FACE('',(#76),#655,.F.);
#687=ADVANCED_FACE('',(#77),#44,.T.);
#688=ADVANCED_FACE('',(#78),#656,.F.);
#689=ADVANCED_FACE('',(#79,#15,#16,#17,#18,#19,#20,#21),#45,.T.);
#690=ADVANCED_FACE('',(#80,#22,#23,#24,#25,#26,#27,#28),#46,.F.);
#691=CLOSED_SHELL('',(#657,#658,#659,#660,#661,#662,#663,#664,#665,#666,
#667,#668,#669,#670,#671,#672,#673,#674,#675,#676,#677,#678,#679,#680,#681,
#682,#683,#684,#685,#686,#687,#688,#689,#690));
#692=AXIS2_PLACEMENT_3D('',#957,#759,#760);
#693=AXIS2_PLACEMENT_3D('',#958,#761,#762);
#694=AXIS2_PLACEMENT_3D('',#960,#763,#764);
#695=AXIS2_PLACEMENT_3D('',#963,#766,#767);
#696=AXIS2_PLACEMENT_3D('',#964,#768,#769);
#697=AXIS2_PLACEMENT_3D('',#966,#770,#771);
#698=AXIS2_PLACEMENT_3D('',#969,#773,#774);
#699=AXIS2_PLACEMENT_3D('',#970,#775,#776);
#700=AXIS2_PLACEMENT_3D('',#972,#777,#778);
#701=AXIS2_PLACEMENT_3D('',#975,#780,#781);
#702=AXIS2_PLACEMENT_3D('',#976,#782,#783);
#703=AXIS2_PLACEMENT_3D('',#978,#784,#785);
#704=AXIS2_PLACEMENT_3D('',#981,#787,#788);
#705=AXIS2_PLACEMENT_3D('',#982,#789,#790);
#706=AXIS2_PLACEMENT_3D('',#991,#795,#796);
#707=AXIS2_PLACEMENT_3D('',#997,#800,#801);
#708=AXIS2_PLACEMENT_3D('',#1003,#805,#806);
#709=AXIS2_PLACEMENT_3D('',#1006,#809,#810);
#710=AXIS2_PLACEMENT_3D('',#1015,#815,#816);
#711=AXIS2_PLACEMENT_3D('',#1017,#817,#818);
#712=AXIS2_PLACEMENT_3D('',#1019,#819,#820);
#713=AXIS2_PLACEMENT_3D('',#1021,#822,#823);
#714=AXIS2_PLACEMENT_3D('',#1027,#827,#828);
#715=AXIS2_PLACEMENT_3D('',#1029,#829,#830);
#716=AXIS2_PLACEMENT_3D('',#1031,#831,#832);
#717=AXIS2_PLACEMENT_3D('',#1033,#834,#835);
#718=AXIS2_PLACEMENT_3D('',#1039,#839,#840);
#719=AXIS2_PLACEMENT_3D('',#1041,#841,#842);
#720=AXIS2_PLACEMENT_3D('',#1043,#843,#844);
#721=AXIS2_PLACEMENT_3D('',#1045,#846,#847);
#722=AXIS2_PLACEMENT_3D('',#1051,#851,#852);
#723=AXIS2_PLACEMENT_3D('',#1052,#853,#854);
#724=AXIS2_PLACEMENT_3D('',#1053,#855,#856);
#725=AXIS2_PLACEMENT_3D('',#1054,#857,#858);
#726=AXIS2_PLACEMENT_3D('',#1063,#863,#864);
#727=AXIS2_PLACEMENT_3D('',#1065,#865,#866);
#728=AXIS2_PLACEMENT_3D('',#1067,#867,#868);
#729=AXIS2_PLACEMENT_3D('',#1069,#870,#871);
#730=AXIS2_PLACEMENT_3D('',#1075,#875,#876);
#731=AXIS2_PLACEMENT_3D('',#1077,#877,#878);
#732=AXIS2_PLACEMENT_3D('',#1079,#879,#880);
#733=AXIS2_PLACEMENT_3D('',#1081,#882,#883);
#734=AXIS2_PLACEMENT_3D('',#1087,#887,#888);
#735=AXIS2_PLACEMENT_3D('',#1089,#889,#890);
#736=AXIS2_PLACEMENT_3D('',#1091,#891,#892);
#737=AXIS2_PLACEMENT_3D('',#1093,#894,#895);
#738=AXIS2_PLACEMENT_3D('',#1099,#899,#900);
#739=AXIS2_PLACEMENT_3D('',#1100,#901,#902);
#740=AXIS2_PLACEMENT_3D('',#1101,#903,#904);
#741=AXIS2_PLACEMENT_3D('',#1102,#905,#906);
#742=AXIS2_PLACEMENT_3D('',#1111,#911,#912);
#743=AXIS2_PLACEMENT_3D('',#1113,#913,#914);
#744=AXIS2_PLACEMENT_3D('',#1115,#915,#916);
#745=AXIS2_PLACEMENT_3D('',#1117,#918,#919);
#746=AXIS2_PLACEMENT_3D('',#1123,#923,#924);
#747=AXIS2_PLACEMENT_3D('',#1125,#925,#926);
#748=AXIS2_PLACEMENT_3D('',#1127,#927,#928);
#749=AXIS2_PLACEMENT_3D('',#1129,#930,#931);
#750=AXIS2_PLACEMENT_3D('',#1135,#935,#936);
#751=AXIS2_PLACEMENT_3D('',#1137,#937,#938);
#752=AXIS2_PLACEMENT_3D('',#1139,#939,#940);
#753=AXIS2_PLACEMENT_3D('',#1141,#942,#943);
#754=AXIS2_PLACEMENT_3D('',#1147,#947,#948);
#755=AXIS2_PLACEMENT_3D('',#1148,#949,#950);
#756=AXIS2_PLACEMENT_3D('',#1149,#951,#952);
#757=AXIS2_PLACEMENT_3D('',#1150,#953,#954);
#758=AXIS2_PLACEMENT_3D('',#1151,#955,#956);
#759=DIRECTION('axis',(0.,0.,1.));
#760=DIRECTION('refdir',(1.,0.,0.));
#761=DIRECTION('center_axis',(0.,0.,1.));
#762=DIRECTION('ref_axis',(1.,0.,0.));
#763=DIRECTION('center_axis',(0.,0.,-1.));
#764=DIRECTION('ref_axis',(1.,0.,0.));
#765=DIRECTION('',(0.,0.,-1.));
#766=DIRECTION('center_axis',(0.,0.,-1.));
#767=DIRECTION('ref_axis',(1.,0.,0.));
#768=DIRECTION('center_axis',(0.,0.,1.));
#769=DIRECTION('ref_axis',(1.,0.,0.));
#770=DIRECTION('center_axis',(0.,0.,-1.));
#771=DIRECTION('ref_axis',(1.,0.,0.));
#772=DIRECTION('',(0.,0.,-1.));
#773=DIRECTION('center_axis',(0.,0.,-1.));
#774=DIRECTION('ref_axis',(1.,0.,0.));
#775=DIRECTION('center_axis',(0.,0.,1.));
#776=DIRECTION('ref_axis',(1.,0.,0.));
#777=DIRECTION('center_axis',(0.,0.,-1.));
#778=DIRECTION('ref_axis',(1.,0.,0.));
#779=DIRECTION('',(0.,0.,-1.));
#780=DIRECTION('center_axis',(0.,0.,-1.));
#781=DIRECTION('ref_axis',(1.,0.,0.));
#782=DIRECTION('center_axis',(0.,0.,1.));
#783=DIRECTION('ref_axis',(1.,0.,0.));
#784=DIRECTION('center_axis',(0.,0.,-1.));
#785=DIRECTION('ref_axis',(1.,0.,0.));
#786=DIRECTION('',(0.,0.,-1.));
#787=DIRECTION('center_axis',(0.,0.,-1.));
#788=DIRECTION('ref_axis',(1.,0.,0.));
#789=DIRECTION('center_axis',(1.,0.,0.));
#790=DIRECTION('ref_axis',(0.,1.,0.));
#791=DIRECTION('',(0.,1.,0.));
#792=DIRECTION('',(0.,0.,1.));
#793=DIRECTION('',(0.,1.,0.));
#794=DIRECTION('',(0.,0.,1.));
#795=DIRECTION('center_axis',(0.,-1.,0.));
#796=DIRECTION('ref_axis',(1.,0.,0.));
#797=DIRECTION('',(1.,0.,0.));
#798=DIRECTION('',(1.,0.,0.));
#799=DIRECTION('',(0.,0.,1.));
#800=DIRECTION('center_axis',(-1.,0.,0.));
#801=DIRECTION('ref_axis',(0.,-1.,0.));
#802=DIRECTION('',(0.,-1.,0.));
#803=DIRECTION('',(0.,-1.,0.));
#804=DIRECTION('',(0.,0.,1.));
#805=DIRECTION('center_axis',(0.,1.,0.));
#806=DIRECTION('ref_axis',(-1.,0.,0.));
#807=DIRECTION('',(-1.,0.,0.));
#808=DIRECTION('',(-1.,0.,0.));
#809=DIRECTION('center_axis',(-3.41607084500051E-16,-1.,0.));
#810=DIRECTION('ref_axis',(1.,-3.41607084500051E-16,0.));
#811=DIRECTION('',(1.,-3.41607084500051E-16,0.));
#812=DIRECTION('',(0.,0.,1.));
#813=DIRECTION('',(1.,-3.41607084500051E-16,0.));
#814=DIRECTION('',(0.,0.,1.));
#815=DIRECTION('center_axis',(0.,0.,1.));
#816=DIRECTION('ref_axis',(0.,1.,0.));
#817=DIRECTION('center_axis',(0.,0.,-1.));
#818=DIRECTION('ref_axis',(0.,1.,0.));
#819=DIRECTION('center_axis',(0.,0.,-1.));
#820=DIRECTION('ref_axis',(0.,1.,0.));
#821=DIRECTION('',(0.,0.,1.));
#822=DIRECTION('center_axis',(1.,-6.83214169000101E-16,0.));
#823=DIRECTION('ref_axis',(6.83214169000101E-16,1.,0.));
#824=DIRECTION('',(6.83214169000101E-16,1.,0.));
#825=DIRECTION('',(6.83214169000101E-16,1.,0.));
#826=DIRECTION('',(0.,0.,1.));
#827=DIRECTION('center_axis',(0.,0.,1.));
#828=DIRECTION('ref_axis',(-1.,0.,0.));
#829=DIRECTION('center_axis',(0.,0.,-1.));
#830=DIRECTION('ref_axis',(-1.,0.,0.));
#831=DIRECTION('center_axis',(0.,0.,-1.));
#832=DIRECTION('ref_axis',(-1.,0.,0.));
#833=DIRECTION('',(0.,0.,1.));
#834=DIRECTION('center_axis',(3.41607084500051E-16,1.,0.));
#835=DIRECTION('ref_axis',(-1.,3.41607084500051E-16,0.));
#836=DIRECTION('',(-1.,3.41607084500051E-16,0.));
#837=DIRECTION('',(-1.,3.41607084500051E-16,0.));
#838=DIRECTION('',(0.,0.,1.));
#839=DIRECTION('center_axis',(0.,0.,1.));
#840=DIRECTION('ref_axis',(0.,-1.,0.));
#841=DIRECTION('center_axis',(0.,0.,-1.));
#842=DIRECTION('ref_axis',(0.,-1.,0.));
#843=DIRECTION('center_axis',(0.,0.,-1.));
#844=DIRECTION('ref_axis',(0.,-1.,0.));
#845=DIRECTION('',(0.,0.,1.));
#846=DIRECTION('center_axis',(-1.,6.83214169000101E-16,0.));
#847=DIRECTION('ref_axis',(-6.83214169000101E-16,-1.,0.));
#848=DIRECTION('',(-6.83214169000101E-16,-1.,0.));
#849=DIRECTION('',(-6.83214169000101E-16,-1.,0.));
#850=DIRECTION('',(0.,0.,1.));
#851=DIRECTION('center_axis',(0.,0.,1.));
#852=DIRECTION('ref_axis',(1.,0.,0.));
#853=DIRECTION('center_axis',(0.,0.,-1.));
#854=DIRECTION('ref_axis',(1.,0.,0.));
#855=DIRECTION('center_axis',(0.,0.,-1.));
#856=DIRECTION('ref_axis',(1.,0.,0.));
#857=DIRECTION('center_axis',(-3.41607084500051E-16,-1.,0.));
#858=DIRECTION('ref_axis',(1.,-3.41607084500051E-16,0.));
#859=DIRECTION('',(1.,-3.41607084500051E-16,0.));
#860=DIRECTION('',(0.,0.,1.));
#861=DIRECTION('',(1.,-3.41607084500051E-16,0.));
#862=DIRECTION('',(0.,0.,1.));
#863=DIRECTION('center_axis',(0.,0.,1.));
#864=DIRECTION('ref_axis',(0.,1.,0.));
#865=DIRECTION('center_axis',(0.,0.,-1.));
#866=DIRECTION('ref_axis',(0.,1.,0.));
#867=DIRECTION('center_axis',(0.,0.,-1.));
#868=DIRECTION('ref_axis',(0.,1.,0.));
#869=DIRECTION('',(0.,0.,1.));
#870=DIRECTION('center_axis',(1.,-6.83214169000101E-16,0.));
#871=DIRECTION('ref_axis',(6.83214169000101E-16,1.,0.));
#872=DIRECTION('',(6.83214169000101E-16,1.,0.));
#873=DIRECTION('',(6.83214169000101E-16,1.,0.));
#874=DIRECTION('',(0.,0.,1.));
#875=DIRECTION('center_axis',(0.,0.,1.));
#876=DIRECTION('ref_axis',(-1.,0.,0.));
#877=DIRECTION('center_axis',(0.,0.,-1.));
#878=DIRECTION('ref_axis',(-1.,0.,0.));
#879=DIRECTION('center_axis',(0.,0.,-1.));
#880=DIRECTION('ref_axis',(-1.,0.,0.));
#881=DIRECTION('',(0.,0.,1.));
#882=DIRECTION('center_axis',(3.41607084500051E-16,1.,0.));
#883=DIRECTION('ref_axis',(-1.,3.41607084500051E-16,0.));
#884=DIRECTION('',(-1.,3.41607084500051E-16,0.));
#885=DIRECTION('',(-1.,3.41607084500051E-16,0.));
#886=DIRECTION('',(0.,0.,1.));
#887=DIRECTION('center_axis',(0.,0.,1.));
#888=DIRECTION('ref_axis',(0.,-1.,0.));
#889=DIRECTION('center_axis',(0.,0.,-1.));
#890=DIRECTION('ref_axis',(0.,-1.,0.));
#891=DIRECTION('center_axis',(0.,0.,-1.));
#892=DIRECTION('ref_axis',(0.,-1.,0.));
#893=DIRECTION('',(0.,0.,1.));
#894=DIRECTION('center_axis',(-1.,0.,0.));
#895=DIRECTION('ref_axis',(0.,-1.,0.));
#896=DIRECTION('',(0.,-1.,0.));
#897=DIRECTION('',(0.,-1.,0.));
#898=DIRECTION('',(0.,0.,1.));
#899=DIRECTION('center_axis',(0.,0.,1.));
#900=DIRECTION('ref_axis',(1.,-2.22044604925032E-15,0.));
#901=DIRECTION('center_axis',(0.,0.,-1.));
#902=DIRECTION('ref_axis',(1.,-2.22044604925032E-15,0.));
#903=DIRECTION('center_axis',(0.,0.,-1.));
#904=DIRECTION('ref_axis',(1.,-2.22044604925032E-15,0.));
#905=DIRECTION('center_axis',(-3.41607084500051E-16,-1.,0.));
#906=DIRECTION('ref_axis',(1.,-3.41607084500051E-16,0.));
#907=DIRECTION('',(1.,-3.41607084500051E-16,0.));
#908=DIRECTION('',(0.,0.,1.));
#909=DIRECTION('',(1.,-3.41607084500051E-16,0.));
#910=DIRECTION('',(0.,0.,1.));
#911=DIRECTION('center_axis',(0.,0.,1.));
#912=DIRECTION('ref_axis',(0.,1.,0.));
#913=DIRECTION('center_axis',(0.,0.,-1.));
#914=DIRECTION('ref_axis',(0.,1.,0.));
#915=DIRECTION('center_axis',(0.,0.,-1.));
#916=DIRECTION('ref_axis',(0.,1.,0.));
#917=DIRECTION('',(0.,0.,1.));
#918=DIRECTION('center_axis',(1.,0.,0.));
#919=DIRECTION('ref_axis',(0.,1.,0.));
#920=DIRECTION('',(0.,1.,0.));
#921=DIRECTION('',(0.,1.,0.));
#922=DIRECTION('',(0.,0.,1.));
#923=DIRECTION('center_axis',(0.,0.,1.));
#924=DIRECTION('ref_axis',(-1.,0.,0.));
#925=DIRECTION('center_axis',(0.,0.,-1.));
#926=DIRECTION('ref_axis',(-1.,0.,0.));
#927=DIRECTION('center_axis',(0.,0.,-1.));
#928=DIRECTION('ref_axis',(-1.,0.,0.));
#929=DIRECTION('',(0.,0.,1.));
#930=DIRECTION('center_axis',(0.,1.,0.));
#931=DIRECTION('ref_axis',(-1.,0.,0.));
#932=DIRECTION('',(-1.,0.,0.));
#933=DIRECTION('',(-1.,0.,0.));
#934=DIRECTION('',(0.,0.,1.));
#935=DIRECTION('center_axis',(0.,0.,1.));
#936=DIRECTION('ref_axis',(0.,-1.,0.));
#937=DIRECTION('center_axis',(0.,0.,-1.));
#938=DIRECTION('ref_axis',(0.,-1.,0.));
#939=DIRECTION('center_axis',(0.,0.,-1.));
#940=DIRECTION('ref_axis',(0.,-1.,0.));
#941=DIRECTION('',(0.,0.,1.));
#942=DIRECTION('center_axis',(-1.,0.,0.));
#943=DIRECTION('ref_axis',(0.,-1.,0.));
#944=DIRECTION('',(0.,-1.,0.));
#945=DIRECTION('',(0.,-1.,0.));
#946=DIRECTION('',(0.,0.,1.));
#947=DIRECTION('center_axis',(0.,0.,1.));
#948=DIRECTION('ref_axis',(1.,0.,0.));
#949=DIRECTION('center_axis',(0.,0.,-1.));
#950=DIRECTION('ref_axis',(1.,0.,0.));
#951=DIRECTION('center_axis',(0.,0.,-1.));
#952=DIRECTION('ref_axis',(1.,0.,0.));
#953=DIRECTION('center_axis',(0.,0.,1.));
#954=DIRECTION('ref_axis',(1.,0.,0.));
#955=DIRECTION('center_axis',(0.,0.,1.));
#956=DIRECTION('ref_axis',(1.,0.,0.));
#957=CARTESIAN_POINT('',(0.,0.,0.));
#958=CARTESIAN_POINT('Origin',(16.0000002384186,-35.0000005215406,13.));
#959=CARTESIAN_POINT('',(14.5000002384186,-35.0000005215406,16.));
#960=CARTESIAN_POINT('Origin',(16.0000002384186,-35.0000005215406,16.));
#961=CARTESIAN_POINT('',(14.5000002384186,-35.0000005215406,13.));
#962=CARTESIAN_POINT('',(14.5000002384186,-35.0000005215406,13.));
#963=CARTESIAN_POINT('Origin',(16.0000002384186,-35.0000005215406,13.));
#964=CARTESIAN_POINT('Origin',(16.0000002384186,35.0000005215406,13.));
#965=CARTESIAN_POINT('',(14.5000002384186,35.0000005215406,16.));
#966=CARTESIAN_POINT('Origin',(16.0000002384186,35.0000005215406,16.));
#967=CARTESIAN_POINT('',(14.5000002384186,35.0000005215406,13.));
#968=CARTESIAN_POINT('',(14.5000002384186,35.0000005215406,13.));
#969=CARTESIAN_POINT('Origin',(16.0000002384186,35.0000005215406,13.));
#970=CARTESIAN_POINT('Origin',(-16.0000002384186,35.0000005215406,13.));
#971=CARTESIAN_POINT('',(-17.5000002384186,35.0000005215406,16.));
#972=CARTESIAN_POINT('Origin',(-16.0000002384186,35.0000005215406,16.));
#973=CARTESIAN_POINT('',(-17.5000002384186,35.0000005215406,13.));
#974=CARTESIAN_POINT('',(-17.5000002384186,35.0000005215406,13.));
#975=CARTESIAN_POINT('Origin',(-16.0000002384186,35.0000005215406,13.));
#976=CARTESIAN_POINT('Origin',(-16.0000002384186,-35.0000005215406,13.));
#977=CARTESIAN_POINT('',(-17.5000002384186,-35.0000005215406,16.));
#978=CARTESIAN_POINT('Origin',(-16.0000002384186,-35.0000005215406,16.));
#979=CARTESIAN_POINT('',(-17.5000002384186,-35.0000005215406,13.));
#980=CARTESIAN_POINT('',(-17.5000002384186,-35.0000005215406,13.));
#981=CARTESIAN_POINT('Origin',(-16.0000002384186,-35.0000005215406,13.));
#982=CARTESIAN_POINT('Origin',(20.9,-39.9,13.));
#983=CARTESIAN_POINT('',(20.9,-39.9,13.));
#984=CARTESIAN_POINT('',(20.9,39.9,13.));
#985=CARTESIAN_POINT('',(20.9,39.9,13.));
#986=CARTESIAN_POINT('',(20.9,39.9,16.));
#987=CARTESIAN_POINT('',(20.9,39.9,13.));
#988=CARTESIAN_POINT('',(20.9,-39.9,16.));
#989=CARTESIAN_POINT('',(20.9,39.9,16.));
#990=CARTESIAN_POINT('',(20.9,-39.9,13.));
#991=CARTESIAN_POINT('Origin',(-20.9,-39.9,13.));
#992=CARTESIAN_POINT('',(-20.9,-39.9,13.));
#993=CARTESIAN_POINT('',(20.9,-39.9,13.));
#994=CARTESIAN_POINT('',(-20.9,-39.9,16.));
#995=CARTESIAN_POINT('',(20.9,-39.9,16.));
#996=CARTESIAN_POINT('',(-20.9,-39.9,13.));
#997=CARTESIAN_POINT('Origin',(-20.9,39.9,13.));
#998=CARTESIAN_POINT('',(-20.9,39.9,13.));
#999=CARTESIAN_POINT('',(-20.9,-39.9,13.));
#1000=CARTESIAN_POINT('',(-20.9,39.9,16.));
#1001=CARTESIAN_POINT('',(-20.9,-39.9,16.));
#1002=CARTESIAN_POINT('',(-20.9,39.9,13.));
#1003=CARTESIAN_POINT('Origin',(20.9,39.9,13.));
#1004=CARTESIAN_POINT('',(-20.9,39.9,13.));
#1005=CARTESIAN_POINT('',(-20.9,39.9,16.));
#1006=CARTESIAN_POINT('Origin',(-6.49999999999996,-12.0499999999999,13.));
#1007=CARTESIAN_POINT('',(-6.49999999999996,-12.0499999999999,13.));
#1008=CARTESIAN_POINT('',(6.49999999999995,-12.0499999999999,13.));
#1009=CARTESIAN_POINT('',(6.49999999999995,-12.0499999999999,13.));
#1010=CARTESIAN_POINT('',(6.49999999999995,-12.0499999999999,16.));
#1011=CARTESIAN_POINT('',(6.49999999999995,-12.0499999999999,13.));
#1012=CARTESIAN_POINT('',(-6.49999999999996,-12.0499999999999,16.));
#1013=CARTESIAN_POINT('',(6.49999999999995,-12.0499999999999,16.));
#1014=CARTESIAN_POINT('',(-6.49999999999996,-12.0499999999999,13.));
#1015=CARTESIAN_POINT('Origin',(-6.49999999999996,-12.5499999999999,13.));
#1016=CARTESIAN_POINT('',(-6.99999999999997,-12.5499999999999,13.));
#1017=CARTESIAN_POINT('Origin',(-6.49999999999996,-12.5499999999999,13.));
#1018=CARTESIAN_POINT('',(-6.99999999999997,-12.5499999999999,16.));
#1019=CARTESIAN_POINT('Origin',(-6.49999999999996,-12.5499999999999,16.));
#1020=CARTESIAN_POINT('',(-6.99999999999997,-12.5499999999999,13.));
#1021=CARTESIAN_POINT('Origin',(-6.99999999999996,-25.5499999999998,13.));
#1022=CARTESIAN_POINT('',(-6.99999999999996,-25.5499999999998,13.));
#1023=CARTESIAN_POINT('',(-6.99999999999995,-12.5499999999999,13.));
#1024=CARTESIAN_POINT('',(-6.99999999999996,-25.5499999999998,16.));
#1025=CARTESIAN_POINT('',(-6.99999999999995,-12.5499999999999,16.));
#1026=CARTESIAN_POINT('',(-6.99999999999996,-25.5499999999998,13.));
#1027=CARTESIAN_POINT('Origin',(-6.49999999999996,-25.5499999999998,13.));
#1028=CARTESIAN_POINT('',(-6.49999999999996,-26.0499999999998,13.));
#1029=CARTESIAN_POINT('Origin',(-6.49999999999996,-25.5499999999998,13.));
#1030=CARTESIAN_POINT('',(-6.49999999999996,-26.0499999999998,16.));
#1031=CARTESIAN_POINT('Origin',(-6.49999999999996,-25.5499999999998,16.));
#1032=CARTESIAN_POINT('',(-6.49999999999996,-26.0499999999998,13.));
#1033=CARTESIAN_POINT('Origin',(6.49999999999995,-26.0499999999998,13.));
#1034=CARTESIAN_POINT('',(6.49999999999995,-26.0499999999998,13.));
#1035=CARTESIAN_POINT('',(6.49999999999995,-26.0499999999998,13.));
#1036=CARTESIAN_POINT('',(6.49999999999995,-26.0499999999998,16.));
#1037=CARTESIAN_POINT('',(6.49999999999995,-26.0499999999998,16.));
#1038=CARTESIAN_POINT('',(6.49999999999995,-26.0499999999998,13.));
#1039=CARTESIAN_POINT('Origin',(6.49999999999995,-25.5499999999998,13.));
#1040=CARTESIAN_POINT('',(6.99999999999994,-25.5499999999998,13.));
#1041=CARTESIAN_POINT('Origin',(6.49999999999995,-25.5499999999998,13.));
#1042=CARTESIAN_POINT('',(6.99999999999994,-25.5499999999998,16.));
#1043=CARTESIAN_POINT('Origin',(6.49999999999995,-25.5499999999998,16.));
#1044=CARTESIAN_POINT('',(6.99999999999994,-25.5499999999998,13.));
#1045=CARTESIAN_POINT('Origin',(6.99999999999995,-12.5499999999999,13.));
#1046=CARTESIAN_POINT('',(6.99999999999995,-12.5499999999999,13.));
#1047=CARTESIAN_POINT('',(6.99999999999995,-12.5499999999999,13.));
#1048=CARTESIAN_POINT('',(6.99999999999995,-12.5499999999999,16.));
#1049=CARTESIAN_POINT('',(6.99999999999995,-12.5499999999999,16.));
#1050=CARTESIAN_POINT('',(6.99999999999995,-12.5499999999999,13.));
#1051=CARTESIAN_POINT('Origin',(6.49999999999995,-12.5499999999999,13.));
#1052=CARTESIAN_POINT('Origin',(6.49999999999995,-12.5499999999999,13.));
#1053=CARTESIAN_POINT('Origin',(6.49999999999995,-12.5499999999999,16.));
#1054=CARTESIAN_POINT('Origin',(-6.49999999999996,6.99999999999995,13.));
#1055=CARTESIAN_POINT('',(-6.49999999999996,6.99999999999995,13.));
#1056=CARTESIAN_POINT('',(6.49999999999995,6.99999999999995,13.));
#1057=CARTESIAN_POINT('',(6.49999999999995,6.99999999999995,13.));
#1058=CARTESIAN_POINT('',(6.49999999999995,6.99999999999995,16.));
#1059=CARTESIAN_POINT('',(6.49999999999995,6.99999999999995,13.));
#1060=CARTESIAN_POINT('',(-6.49999999999996,6.99999999999995,16.));
#1061=CARTESIAN_POINT('',(6.49999999999995,6.99999999999995,16.));
#1062=CARTESIAN_POINT('',(-6.49999999999996,6.99999999999995,13.));
#1063=CARTESIAN_POINT('Origin',(-6.49999999999996,6.49999999999996,13.));
#1064=CARTESIAN_POINT('',(-6.99999999999996,6.49999999999996,13.));
#1065=CARTESIAN_POINT('Origin',(-6.49999999999996,6.49999999999996,13.));
#1066=CARTESIAN_POINT('',(-6.99999999999996,6.49999999999996,16.));
#1067=CARTESIAN_POINT('Origin',(-6.49999999999996,6.49999999999996,16.));
#1068=CARTESIAN_POINT('',(-6.99999999999996,6.49999999999996,13.));
#1069=CARTESIAN_POINT('Origin',(-6.99999999999996,-6.49999999999995,13.));
#1070=CARTESIAN_POINT('',(-6.99999999999996,-6.49999999999995,13.));
#1071=CARTESIAN_POINT('',(-6.99999999999995,6.49999999999996,13.));
#1072=CARTESIAN_POINT('',(-6.99999999999996,-6.49999999999995,16.));
#1073=CARTESIAN_POINT('',(-6.99999999999995,6.49999999999996,16.));
#1074=CARTESIAN_POINT('',(-6.99999999999996,-6.49999999999995,13.));
#1075=CARTESIAN_POINT('Origin',(-6.49999999999996,-6.49999999999995,13.));
#1076=CARTESIAN_POINT('',(-6.49999999999996,-6.99999999999995,13.));
#1077=CARTESIAN_POINT('Origin',(-6.49999999999996,-6.49999999999995,13.));
#1078=CARTESIAN_POINT('',(-6.49999999999996,-6.99999999999995,16.));
#1079=CARTESIAN_POINT('Origin',(-6.49999999999996,-6.49999999999995,16.));
#1080=CARTESIAN_POINT('',(-6.49999999999996,-6.99999999999995,13.));
#1081=CARTESIAN_POINT('Origin',(6.49999999999995,-6.99999999999995,13.));
#1082=CARTESIAN_POINT('',(6.49999999999995,-6.99999999999995,13.));
#1083=CARTESIAN_POINT('',(6.49999999999995,-6.99999999999995,13.));
#1084=CARTESIAN_POINT('',(6.49999999999995,-6.99999999999995,16.));
#1085=CARTESIAN_POINT('',(6.49999999999995,-6.99999999999995,16.));
#1086=CARTESIAN_POINT('',(6.49999999999995,-6.99999999999995,13.));
#1087=CARTESIAN_POINT('Origin',(6.49999999999995,-6.49999999999996,13.));
#1088=CARTESIAN_POINT('',(6.99999999999995,-6.49999999999996,13.));
#1089=CARTESIAN_POINT('Origin',(6.49999999999995,-6.49999999999996,13.));
#1090=CARTESIAN_POINT('',(6.99999999999995,-6.49999999999996,16.));
#1091=CARTESIAN_POINT('Origin',(6.49999999999995,-6.49999999999996,16.));
#1092=CARTESIAN_POINT('',(6.99999999999995,-6.49999999999996,13.));
#1093=CARTESIAN_POINT('Origin',(6.99999999999995,6.49999999999995,13.));
#1094=CARTESIAN_POINT('',(6.99999999999995,6.49999999999995,13.));
#1095=CARTESIAN_POINT('',(6.99999999999995,6.49999999999995,13.));
#1096=CARTESIAN_POINT('',(6.99999999999995,6.49999999999995,16.));
#1097=CARTESIAN_POINT('',(6.99999999999995,6.49999999999995,16.));
#1098=CARTESIAN_POINT('',(6.99999999999995,6.49999999999995,13.));
#1099=CARTESIAN_POINT('Origin',(6.49999999999995,6.49999999999995,13.));
#1100=CARTESIAN_POINT('Origin',(6.49999999999995,6.49999999999995,13.));
#1101=CARTESIAN_POINT('Origin',(6.49999999999995,6.49999999999995,16.));
#1102=CARTESIAN_POINT('Origin',(-6.49999999999995,26.0499999999998,13.));
#1103=CARTESIAN_POINT('',(-6.49999999999995,26.0499999999998,13.));
#1104=CARTESIAN_POINT('',(6.49999999999995,26.0499999999998,13.));
#1105=CARTESIAN_POINT('',(6.49999999999995,26.0499999999998,13.));
#1106=CARTESIAN_POINT('',(6.49999999999995,26.0499999999998,16.));
#1107=CARTESIAN_POINT('',(6.49999999999995,26.0499999999998,13.));
#1108=CARTESIAN_POINT('',(-6.49999999999995,26.0499999999998,16.));
#1109=CARTESIAN_POINT('',(6.49999999999995,26.0499999999998,16.));
#1110=CARTESIAN_POINT('',(-6.49999999999995,26.0499999999998,13.));
#1111=CARTESIAN_POINT('Origin',(-6.49999999999995,25.5499999999998,13.));
#1112=CARTESIAN_POINT('',(-6.99999999999994,25.5499999999998,13.));
#1113=CARTESIAN_POINT('Origin',(-6.49999999999995,25.5499999999998,13.));
#1114=CARTESIAN_POINT('',(-6.99999999999994,25.5499999999998,16.));
#1115=CARTESIAN_POINT('Origin',(-6.49999999999995,25.5499999999998,16.));
#1116=CARTESIAN_POINT('',(-6.99999999999994,25.5499999999998,13.));
#1117=CARTESIAN_POINT('Origin',(-6.99999999999995,12.5499999999999,13.));
#1118=CARTESIAN_POINT('',(-6.99999999999995,12.5499999999999,13.));
#1119=CARTESIAN_POINT('',(-6.99999999999995,25.5499999999998,13.));
#1120=CARTESIAN_POINT('',(-6.99999999999995,12.5499999999999,16.));
#1121=CARTESIAN_POINT('',(-6.99999999999995,25.5499999999998,16.));
#1122=CARTESIAN_POINT('',(-6.99999999999995,12.5499999999999,13.));
#1123=CARTESIAN_POINT('Origin',(-6.49999999999995,12.5499999999999,13.));
#1124=CARTESIAN_POINT('',(-6.49999999999995,12.0499999999999,13.));
#1125=CARTESIAN_POINT('Origin',(-6.49999999999995,12.5499999999999,13.));
#1126=CARTESIAN_POINT('',(-6.49999999999995,12.0499999999999,16.));
#1127=CARTESIAN_POINT('Origin',(-6.49999999999995,12.5499999999999,16.));
#1128=CARTESIAN_POINT('',(-6.49999999999995,12.0499999999999,13.));
#1129=CARTESIAN_POINT('Origin',(6.49999999999995,12.0499999999999,13.));
#1130=CARTESIAN_POINT('',(6.49999999999995,12.0499999999999,13.));
#1131=CARTESIAN_POINT('',(6.49999999999995,12.0499999999999,13.));
#1132=CARTESIAN_POINT('',(6.49999999999995,12.0499999999999,16.));
#1133=CARTESIAN_POINT('',(6.49999999999995,12.0499999999999,16.));
#1134=CARTESIAN_POINT('',(6.49999999999995,12.0499999999999,13.));
#1135=CARTESIAN_POINT('Origin',(6.49999999999995,12.5499999999999,13.));
#1136=CARTESIAN_POINT('',(6.99999999999994,12.5499999999999,13.));
#1137=CARTESIAN_POINT('Origin',(6.49999999999995,12.5499999999999,13.));
#1138=CARTESIAN_POINT('',(6.99999999999994,12.5499999999999,16.));
#1139=CARTESIAN_POINT('Origin',(6.49999999999995,12.5499999999999,16.));
#1140=CARTESIAN_POINT('',(6.99999999999994,12.5499999999999,13.));
#1141=CARTESIAN_POINT('Origin',(6.99999999999995,25.5499999999998,13.));
#1142=CARTESIAN_POINT('',(6.99999999999995,25.5499999999998,13.));
#1143=CARTESIAN_POINT('',(6.99999999999995,25.5499999999998,13.));
#1144=CARTESIAN_POINT('',(6.99999999999995,25.5499999999998,16.));
#1145=CARTESIAN_POINT('',(6.99999999999995,25.5499999999998,16.));
#1146=CARTESIAN_POINT('',(6.99999999999995,25.5499999999998,13.));
#1147=CARTESIAN_POINT('Origin',(6.49999999999995,25.5499999999998,13.));
#1148=CARTESIAN_POINT('Origin',(6.49999999999995,25.5499999999998,13.));
#1149=CARTESIAN_POINT('Origin',(6.49999999999995,25.5499999999998,16.));
#1150=CARTESIAN_POINT('Origin',(-4.44089209850063E-15,-4.44089209850063E-15,
16.));
#1151=CARTESIAN_POINT('Origin',(-4.44089209850063E-15,-4.44089209850063E-15,
13.));
#1152=UNCERTAINTY_MEASURE_WITH_UNIT(LENGTH_MEASURE(0.01),#1156,
'DISTANCE_ACCURACY_VALUE',
'Maximum model space distance between geometric entities at asserted c
onnectivities');
#1153=UNCERTAINTY_MEASURE_WITH_UNIT(LENGTH_MEASURE(0.01),#1156,
'DISTANCE_ACCURACY_VALUE',
'Maximum model space distance between geometric entities at asserted c
onnectivities');
#1154=(
GEOMETRIC_REPRESENTATION_CONTEXT(3)
GLOBAL_UNCERTAINTY_ASSIGNED_CONTEXT((#1152))
GLOBAL_UNIT_ASSIGNED_CONTEXT((#1156,#1157,#1158))
REPRESENTATION_CONTEXT('','3D')
);
#1155=(
GEOMETRIC_REPRESENTATION_CONTEXT(3)
GLOBAL_UNCERTAINTY_ASSIGNED_CONTEXT((#1153))
GLOBAL_UNIT_ASSIGNED_CONTEXT((#1156,#1157,#1158))
REPRESENTATION_CONTEXT('','3D')
);
#1156=(
LENGTH_UNIT()
NAMED_UNIT(*)
SI_UNIT(.MILLI.,.METRE.)
);
#1157=(
NAMED_UNIT(*)
PLANE_ANGLE_UNIT()
SI_UNIT($,.RADIAN.)
);
#1158=(
NAMED_UNIT(*)
SI_UNIT($,.STERADIAN.)
SOLID_ANGLE_UNIT()
);
#1159=SHAPE_DEFINITION_REPRESENTATION(#1160,#1161);
#1160=PRODUCT_DEFINITION_SHAPE('',$,#1163);
#1161=SHAPE_REPRESENTATION('',(#692),#1154);
#1162=PRODUCT_DEFINITION_CONTEXT('part definition',#1167,'design');
#1163=PRODUCT_DEFINITION('Macropadfinaltry2 1','Macropadfinaltry2',#1164,
#1162);
#1164=PRODUCT_DEFINITION_FORMATION('',$,#1169);
#1165=PRODUCT_RELATED_PRODUCT_CATEGORY('Macropadfinaltry2',
'Macropadfinaltry2',(#1169));
#1166=APPLICATION_PROTOCOL_DEFINITION('international standard',
'automotive_design',2009,#1167);
#1167=APPLICATION_CONTEXT(
'Core Data for Automotive Mechanical Design Process');
#1168=PRODUCT_CONTEXT('part definition',#1167,'mechanical');
#1169=PRODUCT('Macropadfinaltry2 1','Macropadfinaltry2',
'KiCad electronic assembly',(#1168));
#1170=PRESENTATION_STYLE_ASSIGNMENT((#1173));
#1171=PRESENTATION_STYLE_ASSIGNMENT((#1174));
#1172=PRESENTATION_STYLE_ASSIGNMENT((#1175));
#1173=SURFACE_STYLE_USAGE(.BOTH.,#1176);
#1174=SURFACE_STYLE_USAGE(.BOTH.,#1177);
#1175=SURFACE_STYLE_USAGE(.BOTH.,#1178);
#1176=SURFACE_SIDE_STYLE('',(#1179));
#1177=SURFACE_SIDE_STYLE('',(#1180));
#1178=SURFACE_SIDE_STYLE('',(#1181));
#1179=SURFACE_STYLE_FILL_AREA(#1182);
#1180=SURFACE_STYLE_FILL_AREA(#1183);
#1181=SURFACE_STYLE_FILL_AREA(#1184);
#1182=FILL_AREA_STYLE('Steel - Satin',(#1185));
#1183=FILL_AREA_STYLE('PEEK',(#1186));
#1184=FILL_AREA_STYLE('Plastic - Translucent Glossy (Green)',(#1187));
#1185=FILL_AREA_STYLE_COLOUR('Steel - Satin',#1188);
#1186=FILL_AREA_STYLE_COLOUR('PEEK',#1189);
#1187=FILL_AREA_STYLE_COLOUR('Plastic - Translucent Glossy (Green)',#1190);
#1188=COLOUR_RGB('Steel - Satin',0.627450980392157,0.627450980392157,0.627450980392157);
#1189=COLOUR_RGB('PEEK',0.6,0.509803921568627,0.368627450980392);
#1190=COLOUR_RGB('Plastic - Translucent Glossy (Green)',0.266666666666667,
0.588235294117647,0.282352941176471);
ENDSEC;
END-ISO-10303-21;
